<mxfile host="app.diagrams.net" agent="Mozilla/5.0 (Windows NT 10.0; Win64; x64) AppleWebKit/537.36 (KHTML, like Gecko) Chrome/137.0.0.0 Safari/537.36" version="27.1.6">
  <diagram name="Page-1" id="wV-baP00EbUIBw8kQtUX">
    <mxGraphModel dx="1042" dy="570" grid="0" gridSize="10" guides="1" tooltips="1" connect="1" arrows="1" fold="1" page="1" pageScale="1" pageWidth="850" pageHeight="1100" math="0" shadow="0">
      <root>
        <mxCell id="0" />
        <mxCell id="1" parent="0" />
        <mxCell id="W8AHhtaywHscRw1tsXga-1" value="Table" style="shape=table;startSize=30;container=1;collapsible=1;childLayout=tableLayout;fixedRows=1;rowLines=0;fontStyle=1;align=center;resizeLast=1;html=1;" parent="1" vertex="1">
          <mxGeometry x="256" y="636" width="313" height="221" as="geometry" />
        </mxCell>
        <mxCell id="W8AHhtaywHscRw1tsXga-2" value="" style="shape=tableRow;horizontal=0;startSize=0;swimlaneHead=0;swimlaneBody=0;fillColor=none;collapsible=0;dropTarget=0;points=[[0,0.5],[1,0.5]];portConstraint=eastwest;top=0;left=0;right=0;bottom=1;" parent="W8AHhtaywHscRw1tsXga-1" vertex="1">
          <mxGeometry y="30" width="313" height="30" as="geometry" />
        </mxCell>
        <mxCell id="W8AHhtaywHscRw1tsXga-3" value="PK" style="shape=partialRectangle;connectable=0;fillColor=none;top=0;left=0;bottom=0;right=0;fontStyle=1;overflow=hidden;whiteSpace=wrap;html=1;" parent="W8AHhtaywHscRw1tsXga-2" vertex="1">
          <mxGeometry width="30" height="30" as="geometry">
            <mxRectangle width="30" height="30" as="alternateBounds" />
          </mxGeometry>
        </mxCell>
        <mxCell id="W8AHhtaywHscRw1tsXga-4" value="UniqueID" style="shape=partialRectangle;connectable=0;fillColor=none;top=0;left=0;bottom=0;right=0;align=left;spacingLeft=6;fontStyle=5;overflow=hidden;whiteSpace=wrap;html=1;" parent="W8AHhtaywHscRw1tsXga-2" vertex="1">
          <mxGeometry x="30" width="283" height="30" as="geometry">
            <mxRectangle width="283" height="30" as="alternateBounds" />
          </mxGeometry>
        </mxCell>
        <mxCell id="W8AHhtaywHscRw1tsXga-5" value="" style="shape=tableRow;horizontal=0;startSize=0;swimlaneHead=0;swimlaneBody=0;fillColor=none;collapsible=0;dropTarget=0;points=[[0,0.5],[1,0.5]];portConstraint=eastwest;top=0;left=0;right=0;bottom=0;" parent="W8AHhtaywHscRw1tsXga-1" vertex="1">
          <mxGeometry y="60" width="313" height="30" as="geometry" />
        </mxCell>
        <mxCell id="W8AHhtaywHscRw1tsXga-6" value="" style="shape=partialRectangle;connectable=0;fillColor=none;top=0;left=0;bottom=0;right=0;editable=1;overflow=hidden;whiteSpace=wrap;html=1;" parent="W8AHhtaywHscRw1tsXga-5" vertex="1">
          <mxGeometry width="30" height="30" as="geometry">
            <mxRectangle width="30" height="30" as="alternateBounds" />
          </mxGeometry>
        </mxCell>
        <mxCell id="W8AHhtaywHscRw1tsXga-7" value="Row 1" style="shape=partialRectangle;connectable=0;fillColor=none;top=0;left=0;bottom=0;right=0;align=left;spacingLeft=6;overflow=hidden;whiteSpace=wrap;html=1;" parent="W8AHhtaywHscRw1tsXga-5" vertex="1">
          <mxGeometry x="30" width="283" height="30" as="geometry">
            <mxRectangle width="283" height="30" as="alternateBounds" />
          </mxGeometry>
        </mxCell>
        <mxCell id="W8AHhtaywHscRw1tsXga-8" value="" style="shape=tableRow;horizontal=0;startSize=0;swimlaneHead=0;swimlaneBody=0;fillColor=none;collapsible=0;dropTarget=0;points=[[0,0.5],[1,0.5]];portConstraint=eastwest;top=0;left=0;right=0;bottom=0;" parent="W8AHhtaywHscRw1tsXga-1" vertex="1">
          <mxGeometry y="90" width="313" height="30" as="geometry" />
        </mxCell>
        <mxCell id="W8AHhtaywHscRw1tsXga-9" value="" style="shape=partialRectangle;connectable=0;fillColor=none;top=0;left=0;bottom=0;right=0;editable=1;overflow=hidden;whiteSpace=wrap;html=1;" parent="W8AHhtaywHscRw1tsXga-8" vertex="1">
          <mxGeometry width="30" height="30" as="geometry">
            <mxRectangle width="30" height="30" as="alternateBounds" />
          </mxGeometry>
        </mxCell>
        <mxCell id="W8AHhtaywHscRw1tsXga-10" value="Row 2" style="shape=partialRectangle;connectable=0;fillColor=none;top=0;left=0;bottom=0;right=0;align=left;spacingLeft=6;overflow=hidden;whiteSpace=wrap;html=1;" parent="W8AHhtaywHscRw1tsXga-8" vertex="1">
          <mxGeometry x="30" width="283" height="30" as="geometry">
            <mxRectangle width="283" height="30" as="alternateBounds" />
          </mxGeometry>
        </mxCell>
        <mxCell id="W8AHhtaywHscRw1tsXga-11" value="" style="shape=tableRow;horizontal=0;startSize=0;swimlaneHead=0;swimlaneBody=0;fillColor=none;collapsible=0;dropTarget=0;points=[[0,0.5],[1,0.5]];portConstraint=eastwest;top=0;left=0;right=0;bottom=0;" parent="W8AHhtaywHscRw1tsXga-1" vertex="1">
          <mxGeometry y="120" width="313" height="30" as="geometry" />
        </mxCell>
        <mxCell id="W8AHhtaywHscRw1tsXga-12" value="" style="shape=partialRectangle;connectable=0;fillColor=none;top=0;left=0;bottom=0;right=0;editable=1;overflow=hidden;whiteSpace=wrap;html=1;" parent="W8AHhtaywHscRw1tsXga-11" vertex="1">
          <mxGeometry width="30" height="30" as="geometry">
            <mxRectangle width="30" height="30" as="alternateBounds" />
          </mxGeometry>
        </mxCell>
        <mxCell id="W8AHhtaywHscRw1tsXga-13" value="Row 3" style="shape=partialRectangle;connectable=0;fillColor=none;top=0;left=0;bottom=0;right=0;align=left;spacingLeft=6;overflow=hidden;whiteSpace=wrap;html=1;" parent="W8AHhtaywHscRw1tsXga-11" vertex="1">
          <mxGeometry x="30" width="283" height="30" as="geometry">
            <mxRectangle width="283" height="30" as="alternateBounds" />
          </mxGeometry>
        </mxCell>
        <mxCell id="VpiQfKxKjVxskaOtgnHq-1" value="" style="shape=image;verticalLabelPosition=bottom;labelBackgroundColor=default;verticalAlign=top;aspect=fixed;imageAspect=0;image=data:image/png,iVBORw0KGgoAAAANSUhEUgAAAZkAAADUCAYAAABOFF7IAAAAAXNSR0IArs4c6QAAIABJREFUeF7sXQd8FVX2/ub19N5DEkgiLSRAIAlVih1BQdBVAQuiru2/q+6u4tpd+/a1AgIqoFLUtSAqID0hCb0FUggJ6f3llbwy899z5r0kICgRiAmZ8RcTkpm595573/3uOec75wiiKEpQLkUCigQUCSgSUCRwASQgKCDz81IVBOHnb+rgHZKkYHsHRdblb2+/TpT57fLTpXSwkySggEwnCVppRpGAIgFFAj1RAgrI9MRZ76ZjvhAaZUdFoWgoHZWYcn9Pl4ACMj19BXSj8XeFDb4rAF03mjKlq4oEoICMsggUCSgSUCSgSOCCSUABmQsmWuXFigQUCSgSUCSggIyyBhQJKBJQJKBI4IJJQAGZCyZa5cWKBBQJKBJQJKCAjLIGuqQEnE4nampq4HA40JWc7V2pL11y4pROKRJwScDHxwdeXl6K419ZEV1TAmazGdu2bUN0dDTUajV3siuwy7pCH7rmjCm9UiQgS4AOYs3NzSCQ6d27twIyysLomhIwmUzIzc1FRkYGg0xX2dwVTaZrrhelV11LAuXl5TAajUhMTFRApmtNjdIbtwToJJSTk4MxY8ZApVK1npAUCSkSUCTQ9SVw4sQJBpn4+HgFZLr+dPXMHpImQyAzevRoBWR65hJQRt2NJUAgQwdFBWS68SRe7F13m8sIZMhEpZipLvYZV8Z3MUnADTIJCQmKJnMxTezFNBY6Be3atQujRo1q1WQupvEpY1EkcDFLwA0yik/mYp7lbjw20lrInquATDeeRKXrPVoCCsj06Onv+oNXQKbrz5HSQ0UCPyUBBWSU9dGlJeAGmd27d2PkyJGKuaxLz5bSOUUCP5aAAjLKqujSElBApktPj9I5RQI/KwEFZH5WRMoNv6YEFJD5NaXfuW23sgYlEQB9UWqH9uXOBQohh1KsvHPn5VxbU0DmXCWoPH9BJaCAzAUVb5d6uQABktMBh8MGCBLUGg1Uam1bHyUJjDCtQNMegLrUUJTOtJOAAjLKcujSElBApktPzzl3TnCrJfSD0w5nYwNqiophb2pESEwM9JERkAyeECjTA4EM3MBCP6sYcFjh4b8pV1eUgAIyXXFWlD61SkABmYt4MUiksEiAKEJssaDh2BGUb9uO6m3Z0NY3oVdCHCIuGw/14CGQgoIhqDUsDIIVhhgVJUt1mdAUkOmyC0UBmS47NUrHeENxxcko7LKLYz2QwtLqZhFFOM1mWCuqUblnF45t3wixogyhegO8DB5oqm+ABipEpQ6Bd3o6tAmJEAIDIKk0LsBp02ZOeu/FIaqLZhQKyFw0U3lxDkQBmS48ry4LFYEGaRduDYNc9uSeV7X7e+soJIm1F6fNBmttFWr27EZlTjbshcfhrdMieGA/BA1NhuDvh6r8ItRkZaOltBTevj4IGZyCgLR0aGPj4fTyhqRRQ0WAI6jIcCarN/Q/tqD92F+jmNR+nbWkgMyvI3el1bOUgAIyZymoX+E2tz/FKbjMV64+0F4v8R9llCEAYMAhy5izBfZmI2oO7kfp1m2wHTgEjd2O8L6XIGzkCBgGDoAUGAgIKsBmh7WiHFXZ2TixbStUtUYEhoQjIHUwAtOHQRPdC5LBA06VBmo30AiSzA2QYYcvBVx+hcXRrkl3FmYlrcyvOw9K62eQgAIyXX9pkOZC2oxbc2E9ggCFfuf6GaIdDnMzLBUnkLduLRq2ZcLQ2ITAiF6ImTAB3iPT4QwLZVOYGirWTqAS4IAdqhYb6g8eROG3G2DctRf6FhMCEi5B7OVXwTN5IGyBvhC0emgIWlQqiAwxCsh0lZWjgExXmQmlH6eVgAIyXXdhtOdzuc1lBDgy2JDzhRhjDtjNZpjLSlC3azdKMjMhVpYhJMAfEUNT4TdmFNQxfSDqDRDVKmiIRSZKLk2ISM2uSqiiDbaGKpTvykXFlmzYjhZDr9EiclAygocPhTaxDxAYCLXOIAMUs84U5llXWD0KyHSFWVD6cEYJKCDTdReH21xGGov74q2dgiklJySbFS211SjdtRe1uTlwFhbBoNEiNGkAgtPSYejbD1KAHwQVxcK4HDsUhimJreUcCGYYr/g/EbA7YC2rRGVODmqzs+A4fhy+vr4IHjoYvulp0PdOgODtC8lVprvrSq/n9EwBmZ4z191ypArIdN1pawMZN8qQoUqEINnhqKtD3f4DKN+yHebDR6AVnQjpl4CQMaNg6D8IKv9gQK+XfSaQXOEugqzFuJz35EshkGGg4ctlAiNWmrUZpvIylG/diootm2AwNsMvPAqho8bC77JLIfgFQVDJ2QEIBKmvbQa0rivTi7FnCshcjLN6EY1JAZmuOZltbn2BzWO0nUuwQ7I3w3z8OIq+34DqLTvg2WhGYGQEoieMgcfINAhhYZC03jL/TNXePd9+nGI7Z307aGCPvisgUxDgFEWobHY0HtyHwrXfoH5/HgKjYjD4obuA0DA2m4nko1Gzlweqk1LUdE25Xoy9UkDmYpzVi2hMCsh0j8l0WE0wVxxHWU4mardlAyeqERAYjKCUZISOzIAqthckT28IKp3sL1GRzkPfTp8a5mwZYaIkQXQ44KyrRW1RIQL8/eDRKxLQaSESO81ogt7TGyovL0CtdmlFSjqazlxVCsh0prSVtjosAQVkOiyyTnlANpXJNijR6UTlkcM48t/PYM/diWC7A5HkIxk3GtqBA6HyDgBUOgjuCH2XiYzA5kyltM8GZOS4HJFzaRJWSQ67rAE5W2CrqUXVgQMo33cQsQOSEDZ2NCQfTxeRQDGcdcoicTWigExnSltpq8MSoE2oqakJe/bsUerJdFh6nfGABEl04sTuPdi9dBl8jh5GhFaNyLGj4X35BCA6DoLBB9Bo5dgX98UMgV+uxfCTBCgCgYwrY7PDAclkRvXBgzixaSOs+/dDW9+IiEvHI+rOWZBCggC4SAadIRqlDZaAAjLKQujSElBApktPD3eOTFZOkwmNRw6hZN03sO3aCYNVQlDffggeMw6GlGQgJBiCVt7gOX6GAaZdwst2P3LcjSSd0VHfmlTTFfQpiXbYzCYYCwvQsD0L1dtyoKmtgo9Kgmi1InT8RIQwyISzRqVcnSsBBWQ6V95Kax2UgAIyHRRYp94uQBQlZnFRsKUgOeCsr0Ft7k5mlVmKjkEvCYhKGQLfEenQ94uHKiAIklrvUmrYKyN/sTIiMRmAAMb9F1ekCys95OhvDbN00ZodFhNMlSdQsXM3qrdsh/aEHIMTMDARDrsFxZszEZc+GiF33gqERkBSyYw25eo8CSgg03myVlr6BRJQQOYXCK2THmF6sCtVmIsszHnJJGsLTCdKULd3F6pzdsBaUgYfX1+EpAxCaOpwaOLjIfn6QFJrmQEmEOvLVSeGa8WQ+Yv9NYQ9cpoYNX3nejIi15wR7XaYautQvXsX6nZkw1pSAk+tDhFJAxA0NAX63jEozs7EsSUrkDQ0DcFzZykg00nr4tRmFJD5lQSvNHt2ElBA5uzk9GvcxZmPuWEJktMJp2iHWkN1XwQIlL7fakFTWQnKs7JRv307tLV1CAwOQdioUfAalQExPAKCzoMZXyqOjSFaM//ElGjOdUbkYzKdMQ6JEEUbJGMjavcfQOGmrbDnFcDDakFwf4rBGQlPisHx84OkknD42zUoXrQcQ1LTEHYXgUwkRCIg/BrC6sFtKiDTgye/OwxdAZmuO0tcC8YVi2+qLEPVocMI8/eHV+8YwMuTnf18h8mMpkMHUbxuA+p374XeKiF8QD9EjB8H/aD+QIAfRLUWKg1pNi4Dmehk8JEkAi0HHKTTtFhgKi1G1dbtqNmUBY+GZniGBSNswmj4UQxOaDgkaKFSObg+Tf533+Do+x9jUGoaYubMZk1GVOkVkOnkJaWATCcLXGmuYxJQQKZj8urMuwkEnBDhdNpwPGs7Di5djhiHE3EpyfBOGwJNfAIkSvFC2o3DAUdDM0rJvLVlCxx5BfDWeCAsJQk+I1Kh6xsPwT8YgobiaNQuLUZyaUQtrBHV7ctF6aZMCGXVCAoIRPTQFPiNGA70joGo94YgaCA47bDUlKLq4AGUrtsAZ14BEseOQcTsW4GgUIiCosl05hqhthSQ6WyJK+11SAIKyHRIXJ16s6xpAA7RiuItG1GwZClCy6vgq9VC37sXPDLS4Jc6BOrISMDgAUHQQrLbYS4vQU1WFmqycmA7UQHfwAAEpyQjIG04dAlyrRhiBogOOxzVNajbdwCVO7JgKcyHl0qLkKSBCExPhwclxfT1B9Q6SJIIR30t6vMOozwrC8ZDefB0OBAUF4uwyydAP2woJE+/1oSbnSqoHt6YAjI9fAF09eErINOVZ0hOJkM1Ykq3bkL+og+RKAjwCwnE8ePH4RCBwNg4RIwbA11SEoTQIEBnYLaA2NwM04njKM3ajprtO2Cot8AvLALBo9LgPzwFgo836guPoXDDJliPFMDTZkNI7ziEjB8D3YB+UAUGA1SOWVLBYbfBeKwIlZu3oGlHDqTGBvhHRSPq0lHwHJwMVWgE4EFFzihWR/HIdPaKUkCmsyWutNchCSgg0yFxdfLNlD+MfCcOFG/eiPzFHyI1KhKBN05GQ2kJijdmwp5XBA+DAYEpAxE8bjR0/RIBb19ApaHamUCLhbWP4u/Ww7z7ALTWFoT2ioCXrw/KiothbmyGV1Q0YsaOgl9aKhAZAadaCw35euwU2V+J4h3ZqN6UCd3xCnh7eSL80gz4jB8LISYWksYDgqSGmkoIuLL/ty9R0MkC65HNKSDTI6e9+wxaAZmuO1c0Nxy7IjpQtO0HFCxeiiHRvRAy9xYgwB/2yjqU7chFVVYupLJyBPr6IHBIErwyhkEbFwvByx+CRs8R+7a6atTu2YPy7dthycuHweqAb1gIfAcnIyh9GNTxcXB6yGY0WO1oqShD7YF9qN2Rg5b8fHh7eCA0KRkBI0dD2z8BTm8fiEyPpjgciYuZcTyPXEat6wr1IuyZAjIX4aReTENSQKbrzibNjUgxLaIdRdtIk/kAyRGRiLhnNqSIcEiSGmghU1YJajJzUJ+bC2dNDfzCwxE6fDD8hg6FOjYWMHjKpGWHDZaqClTt3QdnrRER/frCIyEOkq83U5sFhwhHUyPqjxxF6ZbtaDl4FJ52B8Iv6Q2fjMHwoMwCgaEQdFrA6YSt2YTmqmp4eXlDHxLKSTMhkA6k5C7rzFWlgExnSltpq8MSUECmwyLrtAfcBcWcTjuKtm9AweIPEKNWo/f0ydCnDoXgFwgRRGMWAZMZjQVFKPlhExozs+HttCGodwxCxo6Cx5ChEELCAEo745SLlkkOEWqdHtCoIDptgMmEpmPHUPDDelj2HwCaTAiKjkHsmNEwDBkEhAZA0BE9WQXR3gLjiWIcz9yB8pw9iB8wCPHTp0LyDwQEJa1Mpy0QV0MKyHS2xJX2OiQBBWQ6JK5Ov5mARnTaceLwHhz5eAXEg3lsFosbmQ6/tDSo43oD3l6sQVAuS4exEWW7slG+fh2ceUdgEFUITR6MkNFjoevfD0KAL5waDaBSQ0VJzlpMMFeVoWx7Niq2Z0Isr4S/nw/C0ociZNwoqGITAL0BguiEZLXC2dCEmkMHcGzDOoiH8uDR4kDEiNEIv+c2ICgMoqDEyXT2IlFAprMlrrTXIQkoINMhcXXqzZzmhRzqkhMOkxHNhQWo3JGL+pxd0DY1wjc8GCHDUuA7eAg0EVGQPH0ArQawWWGqOIGK7BzUZGYBpVUI8PFH4JAUeKelQNsnGpJWC1tNPeoOHOS8ZOajhfDR6xHUry9C0lLhObA/4E2paXSAzYGWhlo0HclHVe4ezgYQYLPAIDphbTYhOC0DkffeLoOMEozZqWuEGlNAptNFrjTYEQkoINMRaXXyvZT5hUobcwoYEXDaITY2oSkvH5U7MlF3YBc0VjOCY+IQODQV3kNSoQqPhKAlkxWVUDajqfgY6nJ3oj53N8TaOviEBiM8uT+0fj6oyMtH9ZF8CKKEsMQ+CEkdCq8Bg2T6sk4PSZBgtzSjPv8oqnbkwrb7INBohFd0GKKGDEJDTQ2KN2xB3LDhiHZpMkqCzE5eIwrIdL7AlRY7JgEFZDomr069mzUZgfOWqSh4kvKLUZ4xuw2OuhrU7N+LisztaD5wGN4qDcL692UfjCYpCZKvLxcxExwCnCYrmoqOoGzLJjTk7oTebIaOcpY5AUOvKISNHQmvlIFQh4ZD9KDIfjVgb0FjaTGKs7ahIXsXtJV1CAkIQnhaCgxpKVBHRiF//UYcX7oSfYcMQ697Z0MKCgVUhk4VkdKYoskoa6CLS0ABma47QXJcoys7MiXIJHChWjEaNbQEOHYnxPoGVGRmomrzFkjHi2Hw1iMkIw0BGSOh6dWbacwUM0MOG9FUj/o9exgcHI2NiB80EKFjRkMVFQ1JrYFAsTWSBHNdNep27Ublxs2wHS2Ah5cnIlJTOA5HkxAHaPVwisDBL79E+cefoe+QoYiZcwukkAgICsh0+oJSzGWdLnKlwY5IQAGZjkir8+6VI03kiH+nJKLxeDFKd2Qjws8HweTAD/KHpNNBJakhmcksVogTOTvQkLML+rpG+IeHIShtOLyHpUIdHQVJr4MENVQ2ES01dbCYjfAKDoCOSgJQXIsE2JsaUZd3CDVZuTDt2gtvSYJ/XCz8R6exj0YICYak0UBwONBibMKhr79C3X/XInbIMMTPnQ2EhCv1ZDpvibS2pIDMryB0pcmzl4ACMmcvq86+k5lloGJidhTv3YX9y5YjuLoesQnxCElPhS6pL1SBIRzjQjfajEY05heiPjsHxr37oLGY4N87FoGpQ+CVnMJZlImGLHGZZtn8ppIcEE1GVOfnozo7F9Zdu6BtNCKoVwwCMtLhlZwEVXgoJGKYaQQ4W8wwlpaiPDMLtVk50JbVIGbcRETccgMQGAiJK2MqwZiduVYUkOlMaSttdVgCCsh0WGSd+oBcU8YBc2MNKrOzcfz7DVDlFyPExxvBqSkIGpMBVXxvSAYvCIIHEdHgbG5Aw6F9OL7hB1gPHWaNJCSxL4LHjYV2UD+IvhTZr+FYmcaqSlRvz0LV1kxoK6sQGuiL4PQ0eI8eA/SK5no0pElBsnOKmYrcbJRt2QF1USn8DZ4IHZIM/wkToU5MgGQwyBmeFZDp1DWigEyniltprKMSUECmoxLrvPtZH6DSmCqK+hch2S1oOlGKih+2oikrG0JdPfyC/RE2Mg1eqYOhjooDPPzk1DBSC6y1FajKzkX5+s0QSsrh6WVAeMZQ+A8fCngZUF1wHIe3bofmeDmCdToEJQ9E0LjRUMcnAJ7eEFUqKmMGS1MDGg/sR+MPW2DedwgatRqh8YkIGTsGuuQkWYPh5JjulDKKJtN5q0Rx/HemrJW2foEEFJD5BULrpEdIi2m7qIylk30nTmMD6g8fQllWFkz79kFntSI4Lg5Bw4bBIykJ6ogwQK/nR0WLGcZjxUxBbty1F1JtNQKC/GHw8UR9WRUXLfPuHYew4UPhMTgZUlgI15wR7E7YGhtgLClCWU4OTHsPwaPeCL/ISASmp8I7ZTBU0b0gGgxQEQOO2GrcoitLZifJSGlGARllDXRxCSgg07UniM1lVDaZtm+qoEzddcrp/ylAsvbIfpRv3gJrXj58VFoEJPRBSMZQeA4YCPgHsaOenhWNzWg+mo+qzFzU7toDrdXMgBE+YiQMQwZCEx4qAxO15XCg+VgxyjJ3wLhzF1QVlfAODuZEmr7DhkLTKwaCpzcz0ohiLVfwdIOLosV09opSzGWdLXGlvQ5JQAGZDomr02+WQUZu1sVolv9Bv6S6MaIdFmMN+0pKvtsAMf84gn18EDV4AALIX9OvL+DlxXVhIKrhbLai+WgezE31CIzvDX1YGGwaDdRqNVQOO1qqq1C2axdqNm0DikrgpdUhakQ6fMZmQNUnDoLei9P7S2ouqdZOHooG0+mLw9WgAjK/luSVds9KAgrInJWYuuBNRDwmoJHBBo4WGEtKULhxMxpycmCorURQsB9CMzLgOXw41FEREDx8IAl6SGoVJMHBVTcp4SVV07Q31KP28EGUb90KU14ePBwSInr3RvjYkdCmDobk5weBSiu769QoCkuXWRMKyHSZqVA6cjoJKCDTXdeF5CpCKce4yFxnJ+zNRtTnHURVdiaa9u2H3myFf2wMQoYPgfegQVBRjjODgVPGCE5K7d+M5qJilO/IRv2BA9A0NiIgLAzBaWQaGwxVeBgErjNDrDGZ9uzWqgS3itVdRXiR9FsBmYtkIi/WYSgg011n1g0y7fovydkBBLsDLXW1qDt4AFWZOTAfyYOPZEdIfBz8RoyAftAAQK+DuawCFZm5qNu/D86qOgQGBiM0bSg8KbdZXBwkbx8Igpa/CJRESvPs8r3I/iFFnekKq0cBma4wC0ofzigBBWS66+I4FWQEtprRpSI7mOTgImUtDQ0oz8lFzcYfYCs4Cj8fb0QP6AuNrzdK8wphKi6H2tsDocOoHMAoaOPjuXQAB1VKGgYSfi0l6pTz3PAlKVpMl1k4Csh0malQOqKYyy6uNdB+05c3/vaOeBESFSej6EyrBaZjxajMykRVViZUVM0SEjQeBnhdkoCgkenwTEmG4B8EUUsBlQQuGqhclLa2tyrO/a64ghSQ6YqzovSpVQKKJtN9F4MbZE4Gl5PHw+Yz0QEBTjiam9F09CjKM7PhaDCiV/9+CEgZBEREyH4aogFQQCWlqWnTWVw/KaaxrrpSFJDpqjOj9IsloIBM910IZwMyPMdkR+PITmKh2WBtMsJhc8LD1w9qnQ5QqzkWh+hmAgdWKld3koACMt1ptnpgXxWQ6b6TfrYgw0DD9rTTj5W1Hbe/xUVW675S6Xk9V0Cm5815txqxAjLdarpO6mxHQOZMozw5dY2MRoom073WhAIy3Wu+elxvFZDp3lNO8/dTPpmzGd1JQKOAzNmIrEvdo4BMl5oOpTOnSkABGWVNKBLo3hJQQKZ7z99F33sFZC76KVYGeJFLQAGZi3yCu/vwFJDp7jOo9L+nS0ABmZ6+Arr4+BWQ6eITpHRPkcDPSEABGWWJdGkJKCDTpadH6ZwigZ+VgAIyPysi5YZfUwIKyJyd9ElOoiielL/r7J5U7lIkcGEloIDMhZWv8vZzlIACMj8tQKfTCbPZzOCiUqlg4HLD7dOunOMEdNLjDocDLS0tTHem/uv1ei5UdqEuas9ut3MbWi1lcj63tDRWqxX0Tuq/Tqfj/iuXLAEFZJSV0KUloIDMT08PfYA/+OAD0CYXHByMG264ARERERdsTk+Kvj9PrZAGdujQIaxZs4YBMzQ0FFOnTkV4ePg5x9icrosWiwWZmZnYs2cPoqOjcfnll8PPz+8Xj4bet27dOuzcuZPBKiMjAxMmTLigIPmLO/srPKiAzK8gdKXJs5eAAjJnlhXJZu/evbj++utRW1uLfv364e2338aQIUPO2+ZMoEIaBn1RexqNBp6enmc/gWdxJ7Xx1Vdf4eGHH0ZNTQ2Sk5PxzjvvoG/fvmfxdMduoTHs3r0bjz/+OIMCgcsrr7yC66677hdrM/X19XjhhRewZMkSlvujjz7KX6QhKZeiyShroItLQAGZn54g2jCvuuoqBpmBAwfivffew9ChQ8/LrNKGSVrG559/jm+++YY3zbFjx2LGjBnn1SRHbXzxxRe47777UFVVxSC5ePFiBs0LYfr7+uuvcc8993BbZC6bN28ef/3SthobG/HUU0+x7G02G5544gk89thjbDZTLgVklDXQxSWggEzbBLlTtLRP1UIgc/XVV7MGMGDAACxatOi8gQy1TG09++yz+Mtf/sJazO9+9zs8//zzv3hDPt1yIzD773//2woyw4YN43GQJnOuvpJT26O2yDRHQJCbm4ugoCC8/PLLuOKKK35xWw11DXjqmaewcMFCOJwOPDHvCTz2uAIybtkr5rIuvsmen+6RU9OdVtD9/dwcneenXz//FgVkziwj2jDJXObWZPr3788agNtcdj42aGrj6aefZpAhZzaBDJmG1MKZnfJUCrkjl1tbuv/++1FZWYnhw4czyJAm4wa6jrzv5+4l/xWBM4FNVFQURowYAR8fn5987Kd8UY11jXjqaTfIODHv8cfx+LzHT9JkOiqTnxtDd/q7AjLdabY63Fe5pjpXOz/tB//sWUjtkxyej83rbIeigIxcUZI2Yvqii0w8ZNqh35Pz+pprrmFNhkDGrcm4N8X22g+xn4iNRs/SO06dx1OzJrvfQSBDwEIg8/DvH8YLz7/w06d+AXCKTmZbndrWSevIlVKZfkcmufvul81lDDLvLULf/m0+GXqXe+zUz46uQbfs3M/Rv+mdpJ3R70ge7r6dKjuSmZseTuM5tX0CmSefegoLFy6A0yni8ccew7wnnoBOd2afzOlAh9qgttz96egYz/Yz1dn3KSDT2RLvxPYkSHAvZi5Vy1U7zqTBuH9/+lOovL399BsuxNB6MsjQZkdsq+LiYj55l5eXs18kJiYG6enpCAsLY5Ahc1ldXR2f/EmTae+ToY2LqLolJSV8b2lpKU9TXFwcO9h79erF/y4sLGSGGm229Dd6jp4hH8Nbb73FpiCtVodbbr4Z9993P7Qumm6fPn2g1WogUs0XgM1FJcdL2al+4kQpRKeIqOgoDBk6BLGxsVCr1Mg7kgeHXQag6Ohe8PX1weeffY77HrgP1VXVGD48DYsXLUJ8QjyPec+evSgqKuJx9IqORnJKCr+LNvH2fpSmpiYen8PhhF6nQ6/YXiyvstIy7N6zGw6HDVdceRX3t/hYMctWrVbxu3x9/Vrp0/S5oX43NDbgSN4RHD50GPX1ddDotAgNCWUwv+SSROgNHgwIjfWyT2bBwoUMXKTJPPHnJ2THP9dak2AxW3Ci9ASsRNMWRXh5eyEiOgKeHp4sd5I/aaW0IXt4ePBcDh48mIkJv9RXdCE+j7/knQrI/BK0WTIPAAAgAElEQVSpdZtnXNUGzwAPMqy0Bx0ZYM5k7GhVhjox3XpPBRnaUA8fPoyVK1eCHNXHjh1jhhddvr6+SEtLw0033cRAc8stt7RqMsRwcpvLaMOjzeuzzz5jTaGgoIA3VrrIPEREgZkzZyIlJYX9LAcPHuTf/+c//4FGpcGzzz2LvLw81NbUor6hgUsf+/v5ITAoEIKgwtChQ/C3v/0dIaEhvHGWlp7gtlavXo28vMMgai8tJoOHBwYlJWH6jOkYP248+3gI8IKCg/Hcc89izJgx+Oyzz/HAg/czyAxLHYbX//o6j/n99z/Agf37YTQayUEET08PJCZegilTpjAjLL5PH6g1pIUAWVlZ+MMfHkVdXT2P7bHH/oS8w3lYtHgx9u/bhz7x8Vi+fBkDw2N/eoyBkLSz119/HePHj4fg0g4JULZs3oJVq1Zh2/Zt/D6SpSg6GQBiYmIxceIEplkPGTqUAYRAhjQZArh58x5nn4+bXUbss08+/oQPAE3GJkRGRGLOnDm4dvK1ECURyz/6CO8vWcLgS6AuQEBYeBib8W6//Xb+3p3jbhSQ6TaAcaaOng4SZBNZm+7RBiZtVrOTfTRSK9acou2cxoXT3vJ2oW3NPRFkSIvIzcnFP/7xD3z77bcg9hKZdThAkTZUUYLdYUfvuN4MEOQ0J/Agx//iJbJPhjY72lj/9ve/cfwJvYMueod786MNjWJqRo4ciR9++AFlZWUIDAjEp59+Cq1ay5Ri8ltYW6xoabHxiVpL/TDooVKpGegWLlzIIHPkcB7eevttfPbpp6isquKjikFvYIChDZraCgkJwcSJE7Fp40YUHStCeFg45s+fj8uvuByfffoZHnjoAVRVViEurjf3KTcnhzUTYmkRANA7LBR4qhIQHBSMyZMns48o8ZJEBo6NP2zErFmzUFVdhYSEBFxz9TX4es0aFBUW8mZOmtuqlavgEB2Yc8ccbN6yBV5engxktOETIDY1NeLdd97F8uXLcTT/KGw2O2tFNGa67DY7y57kSJv/c88+h/iEhNOCDM1ZU5MRy5YuxRtvvsGAHxYWjrvvnovbbrsdAQEB+PDDD/HyKy+j7MQJ+Pr5IjgohA8T1TVV3OdBg5Lx5J//jImXTey2lGgFZLo1yMiaSnscYABw10uHmv92Mii4Byw/K5e9dWkwHPXc5qc51Y1zEhC5/9FBJ29Hxd3TQIZOseVlFXj88cfw2eefw2wy80aYNjwNI0aOQEBAIAPK1q1bkJOTixarFSaLmYFn4MABfFomM0t5RQVefeUVLF60GM2mZnh6ezIgEQWZNvvm5mZk78hBZuZ2mEwm2ClaXZQQHBSElStXcZAiBRjW19UxSG3Y+AObukZkZGDylCm8qUeEh2PS5ElwOpz4x9//wbEttXV1vAGnJCdjxMiRbI6zWizYtWsXtm7bCjJp2e0UbW9DWGgYgxRtoGQuu580mepq6HUGNoWRCYs2choPaTBlZeXY+MMPOEjAZ7XAy8uLN+unn3qKN+gNGzZg5sxZqK2p4cwHBHDGZiOiIqPYzEYg/PQzz/DY75rTBjIffrgUk66dBKvZgo8+/gjPP/8Cm+noc0GmNJJZQmIim9lKS0qxPTOTAWPs2DEMMmH/CxqlPrjNZRSD88QT89BibWEQ+ee//oXiY8cQEhqKBx98ELNmzeSAU9LUZs2ajZycbNZIb5t9G0aPGcN09JUrVmD9hvXw8vLGb3/7Wzz00IPw8fU5s7W7ox+sTrxfAZlOFPb5bMpt2JIEt7eEwMSthQgyuLTTZ+iuU3/3U4wz+V0AffvRc2x/b/v7+RzXqe/qSSBDMidZv7/kfTzyyMO8IZNpbO7cuWw2iYuNg1avg+hwso+CNjUyj9XW1vB8DBg4EIsXL8KglEH4bPXnHKtBmxudwsm09sADD2DAwAHQqMmHIqK8rBxLlryPN994g81tpC1Q1oCVK1cgI2MEm8DI1/L000/xaVuv1eN3v/8dnn76GfZlqIiAoBawfet23HXXXBw9ehQqlYBpU6dxMCK1RYDjcDpRUV6BVStX4q9//Su35RRFhIaF4j0CmYltIFNTXcvviOkVgwcefBC/uekmBAYFcXt0wj908BDenf8uPv7oYzbHkXwo4wEB1caNGzFr5izU1NZy3wlkyAxG8hs0aBC8vb0REOiP4mPH2Vy1ZctmeHl64YMPP8S1kyex72funLvYlKfRajFyxAg8/MgjGD16FAegkiZHwEEmxOzsbBDVOmVwChobm04GmcceYw2LzIbPPPssqiorWWMk9hzFAnl4evAnc0dWFgM2zTNlCPjnP/+J+Ph4Nsvt3bOXtZ+BAwZi2g3T0KtXDMug3RnwQn7szuu7FZA5r+LsjJfJG1GbkUxsde6TUtFq9ZKIgSNrJYwXUhtYnN7r0t7Exny0U7wzrhYF0pxcrbRv74yEgnOTSU8DmYaGRjb5rPlmDfQ6PabfcANefuUVTrHCiqZrWkRRwrFjRXj2mWexbPly/rXbXEYb1R//+EfefElroA3stddeQ//+FNyo5nfwuySgprqGfRKUKcBssSAsNBSffPIJMkaMaG3r6Weexgt/eR4GnQceefhh0L/JFMTrUBLx9FNP429/+xu3NWrUKAaS5ORBUDNzS55/UpZJK3rzjTfx6muvMkCEh0dgwfz5uOzyy9mX8+CDD6CqqpqJAPfe+1v87nf/x2YxQd3GJiNta///fDSPPPIoNm/exGwuAgyKdcnJzsbMWbNkwBTAGgj9nkgH7jxokgiW25w5d2Hz5s2sIS1dugxXXnUly2De4/PgsNvZ8U6MOko5oyWWGMtLAH2kiBRAJkA3y4/mzK3JkC/tnrvv5uffeOMNFBYVISoqEnPvmou77p6LoMAg7hvJIycnB9ddNwU1NbUY0L8/Hnv8cVx22UT4EQkBEvvC/AMC4OFhaGXTXWjz9Ll9Wk//tAIyF0KqF/SdAtp0FxEQHBAhMiio6EMgqfhnmUzW5tSXIYI+rKd2zgUeLhCS7zr5ak8HcL3ZdUP7O8+eDt0R8fQ0kCE2E2265eVlfHolcJg6bSpUp0ngSHRXSscye/ZsmExm2Vy2aDGCQ0Jw8803c34uMim9+uqruOP22+XNst1F8yo6nez/uXPOnThy5AhCQkKxatVKzr/lPsjIcTIvwKAz4JFHHmH/g0ar4Tc1NDSwiWrt2m/YtPPcs8/i3t/+trWt9itEzlF2GDfOmIEjR48iIiIcC+YvwISJE/Hfzz9nUxKZyxIvuQRvvvkGRo0ezWQDmTLc1nGL1YK33ngLL730EmsBaenpWLJ4MW/oJIvq6ir4+vjiyaee5L4YTklWSVrgnDvnYMvWLfDw8MSHH3yASy+9lLWvRUsWsw9m5q0z8dzzz7Fp8aTPDQEEfeza9ae+voFjiRYsWMBmwIT4BO4ssQJJI/r973+Pe++9x3VQcFkAIOFEaRnuuedufP/9OvY7JSYkYOyllyItbTgGJQ1iFiGZyEjDbOV+XmDzdEc+m2d77wUHmdP4jc+2b8p9Z5CADDIO2BxmSJKdf+Y4CshaDVEm2/wnkguU5A+qzL2Xl6x4ij+nba5kwGrz7RCA0L9lOiYBmU5lgEHtCRXkzeZC6fE9DWQ2bdzErCnykwwbPhzvvP02kgYNOs3hQJY6+QYum3gZSkpLMGDAQGYpkT9i2rRpyDtyBNHRUVixYiWGDUs9bWwJrRvSZm699VZs3LQRoaFhzGhLz0iXD+//01affeYZPP+X51mzeuThR1iTYc1AEFB6vATTp09nijWZvz784EOMHTf25LZcC4tMb40NjZh566349rvv2ITEPpmJE5hsQCBDfSG/BKVoIX+I+2q/qZOpbc3XX/P95KdJTEzAB+9/wDTu226/HZWVFSBq9ZtvvsnmspMowAJQVEiazBxs3ryFzWBLl37ItOl77r0HX335FTPsiCF23/33M3mBTILtKZcn6/wAgwyxy957Dy0tRAN3fSYkCX7+/tyP66+/jrU/uvh5iiVyOPHt2m85xubQwYP8GdbpdQjwD2DiAmmglPA0PjEBGldGakWTaRPhaePLf3SIVmDkF0hANpbZ7FZs3fU9CmoPwaZpJmY/nJIDkoqOWW6nvgAVKOgOrhNhmwXMbQxzf2DkmE0ZWNxBYO4TJJnd6HPGPgO6x6FFYlQyUhNHw0PyhUpS8+9P/fD9gsH96JGeBjIb1m9gaqzZYmanNzGd+vY7c6LI48eP46qrrsbRo0cYZOhET6dn2vgLCvIR3yceK1auwMCBSezrOPWieSefDpnoyNFPDmliYJF20Aoyzz7L5jKdRo9HH5VBRqVR825Zcvw4B4Mezc9HdFQUm+hGjh7Z3jYrN+kCmmZjM/tIVq5ayQ75+QsWYOJlE7B65Wo89H8PMYWZNJtFi95znfxlDbk9yJA/6du13+G++3+LivJKxMXFsm/J2NTEmkxlVSWSkgaxZjFkyOBWkOH1qSKQOYY777gLm8kn4+XNzvlhqam4+557sGbNVwjwC8BTTz+Nu+beBYPhNPnHyEzcDnca6hvw1JNP4r1Fi9iMRloJgRdpWU6nA9dcM4m1rn792qXJcU0FaaPrv1/PAEU+GjL1EQmDTHYEOBPGT2AqOZEfOABX0WTaPAVkt29vZpHPugrMnJ+NV4S5xYjV33+I7UXrYdU3ASoJTjhkgCGggMTAQiInUwsDTXudw6XR0Iyo1CqXn4dARFZa3IqMrP2oQHfQHsX3OwxIS5yAK1Onw1sKhkbSQxJUrBm16Um8NfxE1M3ZSaKngQzFblxxxZVobGzg3F1k1ycTyuk+OaRVZmfn4NpJk1BXX4ekpCQ2l/n7+2PaDTew7yIwMADz352PayZdc/rU8wJw+FAeb847d+YyrXj1yk+Rlj68dfrI7/PCiy9Ap9Xh0YcfdYGMvGbqamv5tL19+3ZmeP373//BjTe5Emi6LbHuTVkCKisquG/Z2TsQGRmJBQtkTWb1qtV46KGHUFNbg8Epg7Fg4QIej9uv2B5kyO+xbOkyTt1SW1vHTv3331/C5IJZs2exXyc1dSjmz3e/o91aI02miEDmTvbJEBmAgHHEiAw89OBDDH6eHl64/4H78cc//BG+/r4MkD9VboZMhk89SZrMQvYRXXnFFZzqh+jkxKojkyXJ95FHH0Wv6F5tvjVXt4iaXVVRxXTxnbt2svmSvhN9m7SiO++4A08++SRrij0eZGRfgJsWSxtWG+ic3Zai3HVWEhAIZBqxat0S7Di2HlZdAySVBAec7ShlsrOUQcGFLu5/tzFUSGtxm9DkY54MT4xMLqCSSQD0rPuvKocO6YmX4cqhM+AjhUALYsuQNiPbV9o2RAVkzmo+XTeRpkjU2anXT0VObg6bbWjje/yJx9lsc+pFsS///Oe/2F9CRICBlCBz8WLExsQwk4xMUAREt99xBwdA0iZ1ElgJ4GjzJYvfZz8LAQZpMsRMG542rB3IPIfnXnwOOo0WDz7wIF56+SWotbImQyd3+h2lsyHfwYwZ0/H6639FaBj5MtrOGKQxkb9ixYoVeOih/0NjUyOiIiPZXDZ+vGwue4jMZTU13AcyIZF2RcGPp2oylHpm3rwn8PHHHzHZYMqUyRxAum/ffsyaOZPZZampqXj33XcYgE66SJMpKsKdt93Jmoy3tw/7ZMZPmICXX36J+07MtNFjRuOvr/+V2WPU91NBpr3W7nb8z18wnzMZ/OlPf2JW2ueffYZnn3sOJ0pLObiSmGX33/8AExvc5y+SP5n5qB8ERkTNpnilTz/9jOOkyEdF2R3e+M9/MCh5EJMgutt1zj4ZpsYy4whMd6T/6OSspo1Jkjcmlxe6nZ+gu4mpa/WXNnOzvRErvluIrOLvYNHV0x4PkT8MAiQXnUzWZCSoXZoMUQYIAkhzoZnhVCD0NwYUV9QMOVr/xxhiTYagg8CFgYhnFBBEqJwapCVchiuGToevFKqAzHlaHvR5ITv9c889h1defYXjVsi3QJs6sZy4jouLmkSxHmu+XsMMqEN5h3ljHJiUhCWLFjN1mMxsL774ImsGFABIEeg33jiDAwBpvgl8rJYWbPofQ+vJPz+JPXt2s08gJDiEQSYtY7g8KgF48YUX8eQzT0Kr0eLaaydjwYL58A/wl/1z/6NOUzQ7EQLITEXsKYoTuXXmrQgMDGy1K9FmStoLaUVbt26FQ3SyJkPpaiZMGI/Vqz/lWBBiVJG5j1hqf/7zE0hPz4DeoHOta4npwh8tX85kBkrT4uHpiddfew2zb5uNzZs2MzC1gcy7GJSc1GqqY7BgkJE1GaYwe3nJwZjXTuJ4oN/e+1uOMSIgoBgWilci5z8BKGOmKILMYwQEkVFRrDWS1vnUU08zYJKZi2RNpQMonolih157/XUOhqXYoxf/8hc2h2r1WlRWVHKw7fZt2zmDwcTLLmMTGVHUKRZn7l13Ib8gn01/b7/1FtLS0y6U6/M8reDTv+acQIaAxS4CzXYnGlscMFpa4HCKIDq3j4cOfl4G6NUS9CoytwDqNm/0BR3URf1yl+/D4mjGx98uwPZj36BFXycvvlb5yqcdNVSyL4b+KDmhId8KfVhUaqgEDSDJQEObGYEU+XNUAgEMgZEc5kkHBnZ8uphpBFRqhw7DL5nYDmSoiJVaMZed68JjSriA/fsPsIlk7769DDqUDoXiXMaPG8cmKQrQJP/JqtWrkJ9fALtDTkVCqVQosSTl9jp0+BAe+f3DDCJkwiGm0rSpU9lsRhRZk9nEJq5ly5Yx40tOzAiEBIXg09WfMci43XTLli3H3XPnstZCcTR/+MMfmJRAzmgKtiSq8u9/9ztOXUPvoXQxRL2mnGoUZEjmrawdWVjxyQrk5ObyPbRZs+P/vYWsRXy6ajVH/NdW1zKgUG40Ch6dOfNW/k4aTUVFBb7+6msOUqUTPl1E+X3rrbeZ4LB+/XrMnjWbQYZiWGiDbw8ybtA8Rj4ZdvwThdmTfTIEMkQ6IF/MB++/D5vdBoPBg2N4brrxRvSJ7wOdTo/SkhKufbNr924eIyX1JHOXu54M0ZsJZOc9MY/NkxTx/8wzz7CPyWKxskOf6N6kKa38ZAX++Kc/MjMwPS2N42hGjhqFZqOR/WikpVKKm4kTJrLZtHd8754RjElnF9qCSE2ta2hCUUUDisoaUFLTjEazCLsk+wD8vDwQEeaPPrHBiIvyQ5CHBl60af1EisZz/Yz2jOcFiKzJWPDxt+8i89g3sBrqOLiu1WHvkrFB4wkffQB8vALg6+0PD703R223EcwkOEU5+tpqs8JkbYTF0gyrwwKRSAQU6MlfgkwoAIEQoHbokZYwAVekzoAfazIng4ycQcAd23BuJtMe5ZMhA6UocUoYSkVC8SaU2oR+Rydcihj39PDgVCc11dXQ6fVsGiNbPhEF3EXLhgwewqlPvvzyK9ZmKPcXMbL0eh2DBJnhSLMg0xQxnhISEpkkQCypkKBgztmVMTJDNhOpwPm/7rzzTuzcuYsDBSkSnzQiSjFDmytV5qRASKowSbRpt/ObNBm6r8VmY1oxoRZpWQX5BQwS4RHhrMlQIOWnqz/liH8CGW8fb0RFRXOqFeof5Uojc2F9Qz1naaaNnJzrBHREHabIe1on69etZ98HRcwTyLz9zjtM626fzZjGRJH27oh/ikFZShH/lFYGEgd7UrDp+vXrODMAaWv+/gEICPBn/0hTYyP7v8gJnzo0Ff/+978R3SuafTLvLXqP5+7PpMk84S6CJuDQoYN48smnmOZNaWmods2fn3yS302aEgV20s8EyP37D4DFYsaRI0cZYMhn9OgfHmWTJLEGL6pgzFPTTMu0WIE1l/omEwqKy3C44BiqG2xogQGioIcIHawOCWarDQ67CLVagL+fHv37hiM9uRciPVXQ06GZTTHntvn0DEA53ShdIOOw4OO177ImY9HVsqYiay1qaAQ9QoLDEBcVh2CfIGg0Oj7NWm12PqE5nW3ueVJs9HoNdDoDBLWaPyQN9Y2orDwBo6kWosoMp8oGBxxcLoBMLRrSZBLI8X8T/KQwF8i4jXHtD1uKT6Yj65SzLEgytZwCFynVypL338fBAweY0kwZjumi3GOkQVw35TrOU0bmmeqaas4OTGYy8kOQeYc2yW/WrGFtYe/efWzWabG18DqhHGiRkVGYfO21uPLKq5j9tGfvbgaF5cs+Yke4G2Qo0p4IBaQxFBUV8smd+klxN//6178xe/YsDq6k3GHE6KJElZQUkiL9aR8hoCCT0xWXX44bpt/Apq7sHXIqFcp3NmHiePz38/9ynAoFJiYmJrLmRJrG999/z5s6+ZyoUXoXZSYeMWIk05A5WFKr5U2aUs4QI4wSWg5OSWE/Tb/+/RkQ3AGQdN/xkmLce8+92L49kwMdSfu76uqreeGS5kjOetJuvv/uOxB7j5NjkglZArdPSUIJxIjBN3nKZG6b0ssQgYDLL//hUdb2NBo5LolMaOvWr8Pzzz2PAwcOsImOniXNhZz7f/v737EzN5f9VPT5IxYgmbQjoyIZwKmKJwXY/lRNm46ss86+97TmstPVMXBSTQsJqKhqwI6dB1BTb0RAUChCIsLh5ecDg4GiYgU0m+0or27EkYISlFfVwQ4PaPV6DB/SB5cOjUCIBtD9b1JOw6bs7LF32/ZIp7A4zPh47fx2IEPgrYJe44G+vVPQL6E/GhuNKC07gUZjA8xWIxyimaLvAEkNtYo+AC7WmVoFrVYPT09vBBM4RSZCp1Zj3/5slFQVwa62wC442KTGpgynDhmJ43Dl0N/Al0FGTpOhsMvObUm1pvJxHcBMRhMOHT7MObkoDoVAgjZMSi9DJibKI0bzQU53qt9CyS2vnzr1pKA/ciQXHy8GUaPpxFxZWcXvIKc7xWEQ3ZjSzZPj/UT5CU4DM33aDMTH93GntGPmYn1dA7Zt24Zt27aivKKcTV4+3r6c9oVMP2SuIzCi8gA/bPiBTXFEYqCNkXwXY8eMYZYc5UYjUxD5U8hURZtoXO84TtVCMSOkkZEPadI116DZZMK6dd9zZDzdTyBAwDh82DB+V5/evVmbY1+JJCE/Px9ffvklzCYTgkOCcf1117PDXTYly+Zfuo/YYKQ5nSg7wYlAp06dhv4D5AJpDAoOJ2uKWVk7kLl9O7/X2NzcKrf0jAyml/fu3ZtBymy2YMP69dizdw87/smfNH7ihNawAXfJBtK09u3bx32gdDhE1aYYn7y8I9i48QdkZcrgTOl6SDsaP2EcZ6gm7dNd7+Z0e/O5rboL//RZgQyBi41SeZdVY+/+g9AaPBCfkIigoADoDGT3l7UTLuwDAXYIqK63IHdfPvYcLkWjVQOdQY9pV6VgaKwfPCHRftWWKsGVoPHCD/fCtSA73DtBOyOwJ3OZzYRPvluIbUVrYNHWM8BToo/IkF64bMz12LfzIAqPFcAqWiFpJAhqKwAzbxikX9DJjJ6hEx4HelGsC82JqEWQVxSGDx4OlSBhc/ZGmMVGOFR2iPRhVamgc2oxImEsrky9Fb5SOLSQmU8KyJzb+nKDjJt5xKtJknhDJ9u+raWFT7iUb4sc3kw1dxXfchfTYm3W5aRuF3fL5m2y9ZPpit5J8SGeXp5Qa1SQnBKcklMuaEaRVa1F0eTxuN9DfydNmDQZ+qxTDjQyY7k1CV5PAL+HtCgyydFnwtvLm/tLbckne1kjI+2kNUBRIjMhacttRdnoZWQaIx8U+ZBowJQGhsDJnXGAwcMd7CmKLA9muBL5SKM+yYzsnh36O2ksbuICmf04zb87kr81hoXSx9hhajazX4n65mHwgKeXF2sb7g2f2ufCZvQCGcqYfSdbFuT7qC2HzcHzR2Oif5OcuY9OGrud0/q0WKx8D+U3oy+WsyuI89xW16/39M+CDBfcsTlwrLQcRSVlCPufHbVXr0hodRr2vZBcRaeDGREkVGKT6bUaFl6DxYbNOfnIOlSCBqsTg/tH4bqxSQgzUJx4eypeJ2zOF0jGdOqhBUI5oXjREOvhQl4u5pfJYcYnaxdga+E3sBK7jFjHkog+UYm4/NIbcWDPYZRXHEeDuQ4tog2SYKEQTogcUOmEQDE19GEk1ZwqJQpaVu89DX4I9ozCoEuIumnHxqzv0OysgZ1BRiYx60U1MhIuxVXDZssgI8mnSZHjcxRz2blMf3ug4c3Tlb2hlf/HG5YrFL89/bxtB+Wf2rI3nF1v2ocbtPah3aMn/d21aZ7uvrNrre0uN0C0UoTd28J52BLk7V5+kQwIcq6Mk2TDaZhOvviw6ALMU8fT/iDpzp7Bt/P6lwHO3aYbZFrf4SJ2nI2MuHCay8/aHbWX9mM8PbusHSmcbPmlZZU4UVULv5BIPpUQqpuMzTCbTQgOCmQbI6nJoYGBqCgvQ6CfJ+L7xHCsRVmtCV9uP4C9x8oR4u+DG68ZifhAAzzZ/OyaXndosatn7mibtlSQ7tOAe4G4bf0/Wh4uX4/79/L3k0NE5UbcgaLyHS72lItu7c4x/OM4nzZ2PE08OWAbGhth5Ap7GgQHBMDT03BhQ05dIGN2mvHxmgXYVkQ+GRlkBMmJmLA+uHzsjTDWmyBKNpjsJpiszWixGtFisaHFSsweORUN0ZvpFGrw8IJe5wk/vwD4ePtBIxoQ5B2A6upybMxZC6u6AS1ogZMY0QKBjAZp8WMwafgd8JEioJVk27MCMmezfXT8nvNhi/8pQDhdPFv7+08HMPyp6eJsUfeG37ZJyyDT3upAKZLO9aKQgZNBhtpxx5b99PvPJEMGqu4XEnNaUf4IZExmM1Rqyp5KxZEEmC0tOFpQDEuLA1UNJpSeqERNVS1sthYYdBrE946Frz9tSLXsnLJbTYiN9kW/vr3ZjOZwAluOnMDnm3ZCrdJj2tUjkRTtDV8BsDlEnKiogbHZhoAAHwQH+KK6qg4Op50LIXkZ1FALxH4iZ10ZvLx94OPji4rqOlisNkAiHzIAACAASURBVPJ1szOa6I4+fr4I8DdAQynBzS04caICoiggMNAfwcG+bJeVnCLqG5rQ0GBGcFgwfL21rgB5CWXldTA3tyA8LABePsSWcjIdu7KiFjqtBqGhQVBRDWMOIJHNTEajCeUVlahtNjMLJDI0CP6+3heUAEIxLHReMhHIfEPmMgKZOjlYUhIR7BuOy8dNx56cPbA5bAgIDYKfnzd8iE6u9YRG8GAtkkxhnCVAovrlDpanyWJBQ30dGmoaMaj/EOb579i3HnZ9M6xSCzGeObBTJ2owLH40Jg+fC1+EQU0gwyB3+uOnOyb3l+xJPYld9nOb3fkAm59r49f8e/vxEaOOtOwLdbmJABfm/RciwdKF6WlnvPUkkLHZbNKmzVuRX1AKSdDBbpPQ1GSCsckES4sNGoMBgUFh6BUTjV69QhAeGYyyklIUFJTAZAbMZhG3/uZKBAUI8NC70F0ScLy2Ecu+2oYqsw7XXjYEwxMD4ScADU3NeHvRKmzefggTxo3GTTdOxEfL1iBn90HcMHUqrrisP/Q6AQ11jXjpxb8iNXU4RowYhTfnL8eRglKEBAfC01MPk7kZap0HxowajvFjh8HUbMHrf30D5iY7ZkyfhEmT0qFXA01mCz5Z+Q2+/z4b199wHa6/Nh06CmJ0ili8eBU2btyLCRMvxbVTxsAvQIumBhM+WLQKAb4BmH3bdaDEs7Tu3RHAzc1mlFfVoMnSwrUrIkKD4OtlYH/ThbrIvU6xLc12Ez75lkBmLSzaOggqCcQy9tb74ZrLb8DuXLmeu0MtQdKA6abE89cKevjqvKFXqZlpJBJvzGmB1W6GHXY4nDYQ9XnCmGs5WGzf0Sw49RbY4JTjZqg6olODYX1GYUr63fBFKNSQ8zspIHOhZr1nvpcZrUQScqes6Jli6PajPglknE6nlF9wDHlHimEy22G12OHj64ew8FCmDdpFAXWNRvj5GxAbS5x9LTvrtm7bg3fe+QSenlGYPXsyRo2IgZdWtnWSyaveasPHX2biYJUNV106GCMGhMBPJaC+yYi//ftDrP12P26ccT1uvmUM3pn/Kf775XZEhMfh7jmTMWZUH9jtFsx77DnOqDpiZDpefOU95O4twsxZ0zB2bAqOHC3A0qWrYbVqcNON12FwSgJefeU/qK1qxj1zZ2DadcOh00goLCrD6/9Ygtydx5GcPBjPPXUHwsP0jBpvvbUMS5duRFBoFH4zcwomTRoMe4sZ89/+BKGBwbj7rslMbnDnMaKTkM3mQKOxGTZy5AlAgJ8v9OTwu4CxQCRPstUabc3s+N9euFY2l5FDXwI8tF6YMOpqVJVVYf+hvbCrHRDV5IORT1dqtQ7JCSmICY3FkcNHUF5ZAkmwQVQ5IGrIeemAr4cfLhs7BXmHC3C0ZDfsOgucrqSb9IHXOLQYHj8a16XfDR8EQyXJEdkKyHT7/UAZgCKB8y6Bk0BGkiTJ7nDC7pRgMlvhcIjw9vaCRqtGY6MZyz75Gjm5h+Ht64trrx2PUaOSoNcL2LZ1L159bTGcTi/c99sbcPUVydBzETfip0swOZxYuSYLe0qNuGZiKoYnhsBbENHUbMG/3l6BL7/YhZmzbsINNwzFuws/xTff7obJqEP/vjG4deZ4JCVF47VX/45Lx45CWloy/vLye9i1uxi/+/0duG7KYNhaHFj43gqsWJmJlMGpuPmWq/HOW4tRXWnEffdOx+RJyayxrFm7DZ99sQ1HCxogOXR4ct7tuHRsDJuAFsz/BMs/3gyLXY+IqGjMmnU1hqXGYOXHXyMk0A+zb7kMRI5xO7YJZERRpk4SvZuQhSLr5cSUF86cyuYyQUJTixErvluEbYWyuYzTxUCCVqVDRup4aEQVsnK2wqZqgUNFrCRaOxK0GgNGDR2PpD4pqKquwfHiAlRVVqDR1AAbEQTgRIhfCK4cNwWZWdkorj4Iu45iZeTnafwapw5pCWNxXfpcF8iQT0bO6nC6gmiKuey8f25/8Qu7usnN3T+3FkMDVTSZXzzdXeLBH4EM9cohSrBYWziHEAVU0oTv2LEPz744Hw1GTwgqb0RG+eChh25EclIEVq5ciw8+/Bq+PqF47tm7MWhAGDSk5ro2XbNTwqffZWJvSQOmXj0KA6N94A2g0dSCf72zCp9/sRu3zboRN0xPxpL3v0B1rRP5R8tx/HgN+vXrg+k3XYF1332HMaMGIj2tH/7y0nvIyS3Eow/fhanXJfPm/+13WXjh5Y/Qu3d/3DFnGhYuXIzKChPuu286Jl2VBFuLDW++9RGCwy5B1o4j2LXrCKZeMxr33385fH1UWLjgE+w/1ABzixZ79uUhKCQQt94yCRUnShEd5o9bb8xgMGJXhovW2eaCaMs33d4rce4uxR+vETfIGF0gQ+wys7YWIlE2if4pajGoXxpiI6Ox/odvYJZMHEwpqKnfBBJqBPmGI9gnDP4+QegT24dzUhWXHOcvyssUGRyNay+fhv0HDmJX3iY0C9VwqMgXRMF1EsfJpCVeiikMMkGyT0YBmS7xge7OneCaSBQGIQgwGo38RckyicLrpmh35/H11L7/CGQIUCjahfwUnDiRfRAitm7bhaee/wBmawic0EGtM+O22yYjNioAS5d+ivz8EgxLHYQnHp+F4CAtNK7kmOwgt0v47NttKKptwfRJoxAXpIOXoEKD0Yp/zl+FzxhkZmDGDcl4//3PER2byGVHF8xfheOl9YiJjYFot+OmGaORnt4bL770HrJzivHHR+fg+smDWGtav3Y3nnz1Q/S5JAm33TaF01W0B5l9ew5jwcJPMG7iFOzdX4xv1m7GJb1jMO+xW9GvXwAWv/cxrHYDhqamYdGSVdi9uwhRvSIR4OuPay5Pw29mpIASz7pLHJ/skjzZ4X3h3H5kEqPNHrK57NuF2Fq4BmZtHURBAzX5ZZxqJPRKwrDBQ7Fm7ecwO01wCC2UOM5VZoZraEItqqBRGxDoF4zYmFhERfSBTuOBhroGaEUv9O8zBM3GJuRX7kL2oQ3s+BcFYqVR7jINMvqOw/Xpc+GFQBfIyGZCRZPpqVvJuY2bwEWOkxE4mSSxHikeh9LHEMBQbEx7oDmJIeamVHdWrNq5DbXHPX1GCrP7RMH0P0lE+f9YVi++thRHCq0QVd7QeagQ1zsKNeXVOFZYCrXWiccem42JYxPYNEXWGdp0CLBqLQ6s+GIdJJ0Prr4iHWGeAjwkAUaLFX9/5xN88eUezJo5A9OmDsaH769Gn/gETBifhszMg1iy9EsUFNYA8MCjD9+MjLRw/OWld5GdW4pHfn83brg+CZLdgYULVmP56ixMvOJyTJ4yFq+9+m/UVFvYXDZ+bD/Mf3cx+5ri4vvDZJGQmbUPokOD22+biqnXDcHy5Z9Acuowa+Y0HDhQhHfmr8ChI+XQafwwd84M3HpzEvSugndEMmNtxl0vozNLGrhAptnehI8pTqZA9smInCVZhFpUIzKwNyaOm4C1332JBks9nCq7nIOMS5vJpjw2bnFOMkCt0sDfIwRhQVEID4lA314p8DeEwNhUi5qW4/h++1dMhRZV5NsRoXG6QeYuF8iQ418BmR63e/yCAbvBwR1v4v5OgELBm5QI020qoz2IwIYuyiZAcWj07/YBnPS3U6PhOyUo+heMvac+csYszCefFCTYHSLWbdqNz77KRrPVwHnK7HYRpcfK+MQxPKMf5s2bimBvNfTsk5BdzbSpHa9uwuov1+GS/mTuugTeKgkeENDQ3Iy/vf0x1ny9D7fcPBUzpg/HogUfIz6hDyZPHssRsus25GLRh1+h5IQRTzw6B2lpvfDCS28hZ2cp5sy5HVMmpaDgaCHefOMD6DwCccec6QiP8MMzT/8DVdVW3D13BnpF+eONf7+FG2+ahoFJibA7BSxbthbfrM3CiLRhuPeeKVi7dg2XFb7/npt4I83KycO7C1aj6Fg97ppzK269ZYjMLuNs0lw95aSorvMQO3ZWa5Ck6pRENDua8NGa+diSvxZWXSOcrpT8tNX7GUIw5aop2Lx1PcprymWHPs2EIDPE6JLT9ruiljlbgBo6QQutSo/xI6YgwCMEhYWHUWM5juLqY2iRWjhZIgXgapxqZPS9FNentwcZ2TiqaDJnNY099ia3z4UAhC6iyRNI0B5CAEMgIseg2RhsSJOhf5OWQyDkjnmh358aCe/23Sgg07WW11mm+pfzlh3ML8fr/1iGqloBNrsWZosdZrMVBr0aD/3+Nky6KhJ6yQk+e6jkNCVOEdiVV4StWftw9VUTER3uBZ1EECWgtsmIf7y1FBs3HsS111yBm38zHvPf+RCJiXGYdsMV0AgUp2PHF19vwrIPVmHOnbcgPSMZr74+H7l7ShET3Re9Y0PQWF/DcTZXXDUaKYN7obyiCs8//y/U1dkxbdrVaKirRFF+Ieb9+f8QEuzN+2D2rgK8+PK7UKsMuPWWySgsPAKnXcT/PTgTXp4AESA2btqNDz78AldcdRl+c9NoduiTMqNif5OczJDNZq56Op0xtaQ0iYITpMks//odbD76rasypsw2IADUCd6Yeu107Nmbi8KSwlaQoefkkmTuKGh3aVuZbk5paQhkJo6eDquR6n9sgVNjhkNr57RClPKfQEZLINOvPcjQjBO8KSDTGWugu7bBJBlX0kwK6G6vnbjBxD02SrhJwEKB3m7woGcJkOhvbNYXxVYzGhtqFcpzl1waZw0yNIGVDVa8+tfl2JqZD4foAbsk5/vR6zQYM3Yo7r5rDGLDPGBwsbDorGKyObExazdnZ7780uHwIPMMpR+RBLTY7ThwqBCV1U1Mk+4TF4mCo0Xw9vVCTO9IaFxFuBqbzMg7VISwsCCEhgXj4KFCVFRQRlkH9HoVwkODcUnfGHh4EFEBaGo0Yd++PDgcaoSGBMFkMsLD4IkB/WOh0cjeFGuLE7m7j3KQaUR4KMwWEy/g/v1joKM9U7LDYhFxNL8Evr7eiIkN5zo5bjNZe6e+XIi2cy4ZZBww2hqxfM272HzkW7TomzmfGRcoo7xJTgOmXH0dZ2E4cHQ/7ERRpqqZKneqCrkYWVs6fhksiTig13rjynEzcOJ4Gfbvz4Sgs8GhppqbpPXI2Wy1ohojFJDpnAm/iFohUKB9hHwulIjTbf6i7+7LrekQCNH97cGnvXWFAIi+iBxAQOS+rzsnkryIpvqkoZwlyMinBPP/s/ce8FGcZ/74d7ZptdpV7zQJRBe992p6MeAGBnfHieOUcy7Fl8tdLv/7pSd3sWM7dtw7Lhgb4wrYNNN7kQBRBOq9b53Z/z3PO+9qJQskgSSKNZ84EtqZ2Zm3PN+nfh+vhldXb8Srr3+BOpcZqkL+UyF4TEYFN80YhDtvHYf+qbEchKbWANn5JdhzMBNDhg5Gj6QIWPR4BglFn+rnIk9iBaCbMNcPuWMsBtaa/cQL5lU5CYHkOPGCGXWfFdWl+NxiIRJvGBcHE+WJmfqlKHDWubni32IhHy7T1PE5VMhIPR2YEI/zeskVqHLhqSXEBJNFmOZEtEcOIOrDQWR4IVYTfF7qv0JRJpHKS/czm4zMMkAd7rk5WDsfgoFJRbWnoh5krDXMAsD8ZQQyWgimjZ/BLod9h/fA43dDZRZlsr5EXEW6HUQPdTE2FGuKcMRi1rRbcejAEWRnH4bfQjE4nfyS58cAs2bAuH5TOYXZjqigwH/7WTLEQkzstp3prO28wNrh9kwO6SPmDiKZFFx5MmNMfl1jfi6ycugacqE1NefSJUYuNOluo58SbDrXSTtM5GXessUgQ/enepCMrHy88Mp6bN91Ai5fKDS/lRl8ScaFhRqweP5w3HXnJERHWXmR7D9yHKqmYOjgAXBYDGydcMBZAWrqXNiy7QDOnCuC32iCiTqT2MLRf0BP9OsXh8OHMnD48Dn4fERz42d6lx4p3TBsWE/Yw434ett+nDldBMVgZvlJ7cAnTxiGmJhIfL5hO4qKazFy1BD075vMyQiUcpxXUIat2w7A5fFh7rwp8Pud2LrlAAoL6zBqdDq6dovFtm37UFXhgZHa1CpuJMZHY8aMcTh44DgOHjlNXS1YoJuNRvTsmYLhQ1MR5SA2asG6xh40vf30Zc7LRS+j+2rwotpbiTc/fhZbTn4OD4EMkelR3wwCEJ8ZIwaNQkxsHL7etRUeH9W5kCXDER2RjsGWjMiDo1gUd8BUDIiP7YJpExdi65YtKCo7Db/Rw+AkWjULJcDsJ5CZjsVjHoCDssvIQeo3iVbbTRxXWidDmq8EmWCtt63HtvN+bTcCwQF97oTpF4zLLU1HJgWJQOliIBNs+bBsUlWO2RDIkDuNaJ6CgeZ6J5lsu5np+Du1CmRIhJDWf/x0Pv758jrs3H0aHp8NBsXOAkr1edGtaywefng+xo7tws2GMjNPYHD6AMRHRcDMMQMhhol0j9xaf3n8DWzYfBiDR45CVEQ0dm7bi969U/Hzx+7El5u24ZWXP0NsQip6pvbA/v37OP5zz92LMGf2ADz95Bv4cN0OpA8ehpFD+iLE4sTECUO4//iv/uNvOJJZiPkL5uKeu6Yg0m6C6vNj01f78PQz78LtU/DXP/0MZpMLf/zT88jILMFD37sdo0f1xZ/+8AxOZBRh2vSJ6No9ArFRoZg7awLee/8TPP/KR0jsmobUXmnYtWM3b4KHvnMb5k9Pg5mr7vV4TRvMpczwo80iNy25GSm2QpbMGwwynzHI+BQfDApZdBr8XgV9ew1An979sW3bZng81TzeVEvjA2Wa1Re4iYRm5vDn1sxpPfphyKCJ+HLT56iozYFKIKNzSAljUWF32fj+M7F47ANw+AlkKFLVPiBD711VVcWNpCZOnMhaa6fAaIPF1Ua3aJwtJtcqAQQF9cktRoe0MFo6d6SgEnBQIoB0gTX1yNIFJ+9L/yawkfEbSn0OpqZp6fe30fB03gZAq0CGRowmzKP5kXWhFP94bg327TkHp9vMtTPkHqN4y+RJA/HAd+YgO/sCunVxoGf3ZFjIpcaxGMlxLAgm//jEG/h44yHcde+9GNAvBf/zx3/A7XLjz3/9GQ4c2Id/PPMeJk+ZgfsfWog///l57Nt1ELfdMg8PPjAPLzy/BqtXb8DtK+7Ad+6dghCDn912ZeW1+OkvH8fBY8Xo07cffvWLW9GnVySqa5x47oW1+ODDHTBbIvGXP/0YkZF+/O4PL+DAgTz89Gd3Y+TwFPzut0/j8MF8/OyxhzFr1gC2ggyahrUfbMATz67BpBnzcde9C/DXP72GXbsO4M475uHRh2fCpHm5nodcba05GmfD0EagzXL06FHWyFJSUvinoG5h9jJUecrZktlMMRlrFdP3M3iQNeUDEuOSMXbMBJw8cRKF+bnwqW74NBU+cv9xW11hvdA9aRMTzb/dZseg9KGwWiOxZfMmeFDJhZyUkxbs1jD7TJg0aBYWjbkfDn+UsGRghObzClejXqXa8Kdu4zVh7DS18ek+Z86cYWFBHRRPnz7NDZw6i/Jas7La/1wZbA8GGxmYJ4Ahy0UK+dYIeAIpsmao5XBLrVfhOjfw3pEgRQoKtYGmv0vLpjXP0f4jeON/Q6tBRgKN1w+cPFuI1e9swNatx1BeY4RqCGUhP3BAKkaN7oe4BCumTewLh9UIs0FkLwUXMxKtzN+eeQdrP92HO1etRGpKPJ7+27OIjIjCf//3D7Fj1w78/cl3MXnaTfje9+fjL39+Hvv3nMSK5QuwYvkUvPTiWrzxxkbMnT8fy5eNhC0EiI+LRlFJBf7tP5/AiXN1MJvt+P5DS3Hz/EE4ffY8Hv/7GzieWQD4Q/Gb//ouUlNs+MMfXsTe/Xn4xWP3Yuiwbvj9757F/n35+M53VmDKpJ6IdJiRGBOJ99duxv8+/R4mz5iH+787C//zx9dwYF8G7rlrCe69YzQqy/JQXFB8Wc3LGi982ijUiZD+PmLECG6zy82VOPqjocpdjjc/eYZBxhVSxdYNub8obmXwm2C1hGBA33R079ILHidR+NTC6/FA9frg9fiYkZqAhvq+22xhsIVZubc6dVg8nnEYeUXZUBWKxxCfmYj3sD9dMXAK86R0Apn72JIxsLvMgPLSUuTl5X4DZGThamvSIwhcqFsi9XTv2bMnB3eJu67T135tCKXGioQU6gQMZD1I5eVyBbqM4ZAFdCmQkYkCwaMi/8YKsd5gTQKQLO4MPv9yn/HamIlr/ykuC2Tka3k1P85lF+DJZ97F9j158CpR3Gq1X58U5OSeRHxiCB5+YBG6JTnYlWTmtF+9sZWioKrGhSeeeQ9rPtmDuQvnISzUizOZJzB1yhjMmT0G6z/dgieeWIN+A0Zg0uRh+PCDL9AzJQV33jkVab1j8fIL6/DaqxvZWhmSHoOYSAPmzr0JZeXl+N1fn4c1PA0HDpzCiCED8Yuf3oqvNn+NAwdP4kJOKc6fL8DPfnYvhg1Lwh//8Dz27snDv//qIQwemozf//457N2bi/HjhiOthw0D+yXjpunjsW7dDvzl7++h3+CRGD9hMNZ9+DHSUlNw18qZGNQrEn6PC163cEe1phdEU3n99DdqE0sbjFq1kpBlIR8MMp8+i80nCGQqdZAhNxjX88PgVxBiMSM2MhFx0UlwhEdxVz+zKQSKQmAl2iVTl0IKsrrcLlTXVKGishQVtcXww8lZbLKXiOy2SCBD7rKJA2/CQgIZLZobntG3+jz1XRPZ6pJ9iYKab11sSwRnDklFhrorkrAhYCGrhtxlnSBzdYVKsFtK0sDQ+qFDWMSmQAGlfNKmgKC5t5CWTHMxmebuI/cWrSMCHHo+WeQp11LnmmpuFK/s8xaDTMPgrRBQpDn7vF68/vZneOGN7QiL7I1effrhwvnzyM4+xfUmdyybgluXjENkhKCakfKXXDXVRCvz7LtYs343brl9KWbNGAx7qBFx0TaEWg14b+1XeOKpD2AyxcBkMMHrMzDL8+LFAxFiVfDKi+vx2iubMH/BAixdPAg2q+hDcyzjJJ7855tYtPQ+vPrKBygrrsKty+bh3LlMDBsxFFu37sKe3fvxvYfvxKTJffDnPz2HA3vz8G///hCGDk/Gb3/3HPYfyMd9997KDAaRdiO3FVi3bjv+54n3YbDGQFFUmE0aVq5cgpsXpiM6xM81Km2pFQXiMEG0GeQuUzm7rN5dVmeuhN9AnUmFYGeqTL/GMRaDn+I0Zm6xTABEzdUMRur/4odfEy1jVU24uAhAiHxTAAu5/ChBgAL+zN8s7k2WjGbAxPSZWMjuMhH4p8/bMvAv6yDoJ/nY9+/fz9llLXWdXNm26Ly6qRGQigD9JIFdW1vLMRcS2jIlua3WP1my9F/jLLQrmRlaS3RPCWDSndcJNlcyqs1f22qQYS2TUoH53qL33Kcbd+LlN7chLLIvCooqkZ+fB6/XzUIvMdaK25dNwOJFYxAZahbNsjj9lyyZOvzt6bew7tP9WLlqOe68cwJCjRS7EXlPb6/5FE8+/TF6po1GXEwMtm7bhQHpKfjhjxYirWcMXnhuLd547SvcsWIF7r97FNe3UAbc9v9LHnj9zQ/x88d+iffe+wzr12+D2RKKEcP74u57l+G1V97Cpq/24LbbF2Pe/BH429+ew8F95/Fvjz2MIcOT8fvf/gN7D+bjXx99EIvnpsPMvF8GfPTxFvzliTXoM2ACYmOisH3rZgwePAA//MF89E8N55jQN5u5Nj8JrTmD62T0mAwF/smSqTNVw28kkBBZY4pC6dc0QxR3qe8zHjCx+DxBdikOAhY9GYCpZmS5JmGRSAsgHjujQll1ouJ/YvpsLBp7PyIQDZPfRIQ2bQ4y0qKhAHInyLRmlbT9uTL2IuMdZL1QUJ4EtbRa2wpgZMozKRcUi6SjLe4d7DEgy0amSUteNKnAtMV3tf0MXL93vGyQEXYMaQY+nDiVi+ff2IgDR8tQXumDSoJQ88OkkCatoUuiBY98/1ZMnZgCCwk4hhAjKquq8Ze/v4LPNhzCrbcuxfe+MwcWWcjpB958dy2eemY9Ro2ZjZtvvglP/v0fyM8vwuLF03HXXTfh5ZfexbvvbMHY8eOw4KbR0FQPHBFhOHkiC1u37sRvf/srHD5yDP/zxCsoKa3DD394D6ZNH46nn3oRn362D9NnTMQtt03HP55+HkcOnsOjj34XI0el4ne/exKHjxZi4fybMG54D2heN/r3648duw7h8WfexqgJ07B0yRw88b9PoaioGLcsmY0H7pqOiLD2r5QhXFCpTYKnGq99/A9syfwMLlM1FKoUVYhgkMZX1MsEaGNoxDkYpjeb5vgKAY1w6/F8CJaZQIifY/eUFEC1RMyLxqoB3ydENWJq+gIsGncvIhENg998ySqhlsZkgjd3sECggjvKLuu0ZK6OoJFCX6YJkwuL5kpSwFyOO6y5N5ExGQKxtnJnNXZLy8w0SW0j62zk+8j12Ak6zc3WpT+/bJCh27JDRVNRU+fGG2s24tmXvoTqj4CmWESRJjlR/FSF7sXYMYPx2E/nIynWyFlmqt+A6tparFn7OQ4ezsaYsWNx86KxAZChLKgvt+3Ax5/vRUpqP9yybCY2f7kbe3fvQVRkGDcnO3DwKA4fOQWL1QK7NYw17pRuifC6XCgoKsK9992BmroqvL3mMxQWVeC++29HbIwd6z/ZgN27TiKtdy9MnDQMG774EjnZRZg3byb69uuCDz74HPnFdQgLDYXNRIWgKqZMmYri4jJ8uXk7evXug6XLZuKLLzZj375jiImMwz2r5qFrlzDO3GLN68rm5ZJX+xQNlZ4avP7x09iR+Qk8xjpOM9aoNSa5u/TWnQJERH+C+lbmZOn4RcV/EPBwnYzoyCyen1LNOVuNXGg6vzJZSQbA6jdj8sDZWDz2PoQjClThRLbTxd75cupkgl2FlCHUWSfTjgsq6NZSoEp3JX1EbjGZRiwJKhvE3IIsjabii5fz5NKtJS2ly7lHS66RFpr8Pvp3M57S/gAAIABJREFUcFFnJ8C0ZBTbCGSk2BQCQ1TzC2tGY2qZPYdO4Yc//zucnnCoCgWpjdw7nht4aSpsIRb85JGlWDC3D7u1KLuJdO46lwdejajOTAizGrk3DAk6uneNxwO3h9KSDbBZzFBVjTOkKJZA2pTXSwJVg6pr4RTspgJKRfVxTxzKmKKYQ53HB4/qh8Nu4Wf1eolsT/QQp7obIuL0q36EWs3cd8XjZQoCFrLca5x6qFjM8HmIgcDHWV7WUBM8PhUuj8oCOdRiQqjV2KA7ZLvU/9P7GmhsnFi78XUcOLmF04wJYTnVmKrzOb9CFk+KAkreLHq8hpuP6QwJMjbPdkqgV45ovxYAKVliqls9ZCUN6T8Oc0bdAodG9U+cN3hRaL1SkOm0ZK58o7f0DjLuQkKXEi8kCSWlEjfW7BtbnnKdtQXQSHfWlQb+W/reLNX0bDRJxknJNvTenceVjUCLLZlg3ZyEhggOUwKAMGlyiitw3/f/H0rKLPDCxu4wAgCmYPFrXGcycUwv/OuPb0ZsdAjCrGb4VA2lldVMLRMSGoKYqHAOnpNwrq6tQ3lVLSXlimZbfj+iIsLgsIcKdmdeECoqKqthNFkQHm5jQk3ZvZFknsvtQXV1HWpdVCNCjK4mREdFcE1ISUk5MxHY7TaEh4VwHMjt8aKqpkak8vrB9xZVPSJxOCw0BBGOUFg4ZkFFkeI5eLORESFdT/qctAfICFoZ8V9+RR4q60r1hgrk8qKHECMQzD1A4NvAkaenI0uTq6GTTy+WlcwFrFTIuh8BTgRGoWFRiLHHwqKZOZtNWExN2zKdIHNlm7QjryZwkZlY0moJTrYItnSa0vLbynUWDDKNrab2Gg9ZzyPTsaneRxaR0lh01mhd3si3AmQu9gUKa/vlTh9WPvifyC80wGB2wK+Y4FVVaF4fu5uM0NAjKQzff3AB+veNR3JSJOqcLrzz3qc4fOwcRo4ajFuWzmCgIFm1c/d+rFnzJcwhEYiKssNi8GL0qEEYN2aoLkiBjMxsrH77MyQkd8ddq2bBZiE4ojiRHzk5BdzNs6iwnPnO6Lt8vjrMWzAdyUnJePLpF1FT7cesm6Zi0oQBCDEbcOrUOXy24UvMnjcbdU4f3njjA5iNdsRER8KoeDE4PRVTJg9HiIksFi4NqS9T1C08MUr1BaeXNy0Xv4o2HNet6ECr+lWRksk1NPWUNgwVzA4t2aKFUiCbMOiEMvXWRyN8INZtcY68Z/0zcZ8gwjNKdFAok609nYNUtFvNgX9ZjNnWY/ptvp+0OmgNSZcRrbFgCpjg8WkrEGluzKU1IWtu6PyOdl1JrjWK2UiQCc526+jnaW7MrtXP2wBkBCdYjRdYfs8vUUAgExoBxWhhtxO1PfZrXljNBqT3ScL08X0weWJ/dO8azQWC//vEm/hi42EsXTYHD39vPlPPkEZO3GO//92r6JbSH7fddhNioszokhiFHl3j2Yoij9Zrr3+MV177HOGRCfjt/3sEfdPCGfBOZWXjhRfWoKi4GvPnzcSQwWnw+rw4evQYBg3ug8TEBDz8yL+jtMSH7z50NxYsGI5Qs4L9B47jjdVrsOr+Vair8+IXv/gzkuJ7YuWKuUiMD0NMpA0pPRJg4ZbUTSnuwoFYDz3tYcvULyXaiFlZWSgpKeGCTas1VACcbtGRq1BSwtBVIt4i2mmLTdv0833D3cFutgbtczp0PXeCTPsNt6RhkeARDC4dBShNvR09F2V/BcdkOlqoS1onyb0mEx8kL1pbJSS03+xeG3e+YpBh15Wmocrpwx13/zsKi03wGUKpf6IgVOQTXBxwnzC6D+bOSMfQISkIsRhQW1OHx59eg48+Pog7V96MB+6dyMwAFF3YtHkPfvObl9Gn73D85F9vQ/euEbASvQsp5gZBdPm7Pz6PjJMVqK7x4aEHl2H5baPhctXhuefew5o12zBn/ix87+HFiAo3MoGm0+nlbCmXy4Pvfu/fUVSk4gc/fADz56Yj1AQcPHIKb769FivvXYGaWg9+8q+/RWr3dPzyF6vQo0c0PxvR4zCZMWvyjSexY0CGxptcGEQc+fbbb3Nl/MMPP8z0M7QRZJEcxcRMZoplqYwQZjM1gAI8Hm+AF4o0NHkNAxGRbOp1ObTJSejQd9Hfgzcb+ao7apN1gkzbCYvghApKESaXkMwWC6bVv5oAQ29LChQlHDgcjg5bZ41HWYKaBBsZs5EASGAjaXOuhqXVdquife90hSAj2vm6vSq27zyC3/z+dVTW2uFjLisKHfthNqpIiLFh8aIpmDp5ILonUfc7QS1fU+PE40+/g4/WH8Rddy/HPXeP4sA/xQC+2rIHv/71y0hM6o0lS6YhJkLB4AEpSEyMgKr58cHHm7D/UDaMlkR8/MlX6N+7O379mwfgcZfjj394CUePFeCRH92NpcuGc9q05vZBY7ZhA5xOH37w418jN8+JH/3gfsybkw6bGTieeR5vvvM+br/zVtQ5Vfz4J79FdEQqblk6E0kJIejTM4ktMLa2pPepwfx0DMhIAXD27Fls2rSJBUX37t0xf/58ZGdns2uJFn95eTkiIyO5CLOwsAjDhw9nHrDdu3cz6WRUVBTGjR3LIJWXnw9nXR1TuAwYMBC79+xGSXExQm02TJ48mckODx08yK9dUFCAUaNGYeTIkR3iwugEmSsXAhJcSFGQDMekJJClQOBytUGl8RuSIKfnbO/ssuZGNhiUJTWNjFtRYgQlB9Ah3WkyO60tkh+ae7br5fMrBplqpxtf7ziKd97biIOZFfBo4VA50KzBpHjQs1sMli6aiNmzB8NhJ6ZeSgagnhJUjOnE3599Gx+uO4B77l6Ju1aNgMkoUnC3fb0fv/qPFxEemYKJE4ciPlzF9ElD0atXEgpKKvDfv38c3XsORpg9GW+/8zFUjw//8ugKdOvhwB/+8DzOni3Hv/78Qcyfnw6DT8XeHQdRXFSOlJQe6N6jB37ys//C+dw6/PCR+7FoXjpsJuBYRjbefn8dbr/zFlTX+vAv//Jb2G3dMHnSMESEq5g4Jh3pA3uwNdP0EQwyreSWaeWKoQW/detW5OfnM8Bs2bIF999/P9OvrF+/HnfccQdOnTqFc+fOYebMmThy5AjT1CxZsgQF+fmorqrGoUMHMX36DDgcdganfXv3YeiwoWwhXcjJwYzp03HgwEFOlEhOTsLOnTsxa/ZsZGRm4Pz58/jRj370jRa4rXyNFp3eCTItGqZLnkTrhWIMdJBwjIiIaBDI7mhX1KUelp6FLBlSniSd0pWPQOvvEJzkEAzCMu2ZnpHOIYtQskXLeFbrv+3GveKyQYZSmGnhHjiSiaef+RDHMyrg9tvh5d6M5NZyo0eXCKxaPhNTJ/VDhIOq/TVRmkEgxCBThycIZD4UILPqrpEwEV2+AmzZvgf/8auX0Kv3UPzoh7cgtasdYSFEiaJg45e78OzzryO1ZzoMxjAcO5bF8ZfJU0di0aKpeOHF1ThyJAv33H8LVq6cCqOq4fG/PIddOw9g8eJ5WLBwNn7+b79B9oVaPPL9+7Bo3iDYzAqOHD+L9z/8FLevWMYuuB/++L/RrUt//PhHt6N7j3DYQ4xwWE0iTVoWy/PaaPCPi5k5bbqKyJX10ksvsUshMTGRrZNVq1axH5vA5wc/+AGzOGdkZGDp0qVs3VCtyfRp05B5PIPB4VRWFubNm4/U1BRs+OILJswkfjBywXVJ7oKFixZiz5692LplK1suBGC33nYrDh05hM2bN+OnP/1pA3dBm75g0M06QebiIxtcOCiFn2QiJoEXnC1G/5apyNd6phTJFlrbkn28vdbWld43GHDodwJw8hB0VEbclT5/R1x/WSBDGUtUSVJdU4fX3voEq9/dgTp3BFTFLDpVKl50TbbjgfsWY8qEnggLJWYrqeVT0Z8IPlfXOvG/T72J9Z8cxh133Ia7Vk2AovlgNCvYvnMffvObF9C7Tzp++uhKdOsaAUXzcxzn2X++AoMxFMtuWQqL2YiNX+3GSy+8h6iYODz4vVU4ffoU3l69DoMGD8KPfrwCyQnhePJvr2DTpm1YsXwZFi2eid///q/Yd/Ac7rhjGW6/bRIcYRZs2rgTR45mYtXdy5CXV4N/efS36NYtDY/9bBV6dKfv98FqNcFiMlLSbtDRGGTaf+qotfKbb76JcePG8aImEKHYSbdu3bBr1y58//vfD4DMsmXL+PNdO3ciNjoGEZHRGDJ4MDZu3IixY8eioLAQhw8dwu133I6YmBisWbMGqk/FkqVL2HrJyclF/3792DIikDl4+CCDzKOPPsqulvY+OkHmInZzIIFDmNZS4NHvnIWoaZyZR8BCn8k42rXuypHgeC24y1qztqWLjxQ9+p0AUvY/upYsxda8U1uce9kg49b82LPnMP73yfdx9rwTqmKDYqC+3Qp69YjCqtumYvKk3qCEJwIYCrXImhMOaVAzqupqPP6Pt7B5y2n07JGKQYO6w+erRf+BveH0AH/72wuIjEzA6BGDYAs1wGRUkZQYg88/34gVd67A8OG9YTIDp7IK8Jv/7+8oL3Ni9twpmDhpFL7YsBmHDmWiX1/qspmG7dt24+yZHCy/fTEW3zwBO3cexQsvrUFIiA1jRg2GPSwUWaezMGbMIEyZOgLHj5/Df/36KVgsERg9ahgi7EbYQvyYOXMMN2YTsSMujW+LeWjVPWjBEmiQy2r27Nnstya32N69e5GUlAQCoJtvvhnnzp7D+QsXMHnyJGRkZOLUyZOIi4nj94yPT0BtTQ3SBw3Cjh072AJKTkpCjx49mGR0wxcbWCiRS2DipIlchErfMX3GdJzNPstAtnz58kBTqvYUXJ0g0/zykONPP8ktJpM0rsfqdQmWFAe8mu6y5ke94RkS2CXYyA6ddBZ5Dr6t1s1lgYzXpyHrXD6efuZN7N5fCJdqQURkLBwOG/r2ScRNUwdhwohUhIZS7CXAFRCYEbkhXG439h44iqLiGu6saKSaC82H7qndEBIahmPHM2BQKLvJAE31whpiQnRkJErKKzBm1HCEh1thNAFup4otW3ejtLQWCYnRGD6iP7d2zszMQl5uIbcGpmcOd4Rj8ODeSO0ZD49bw6HDJ3DmTA48Lj9s1lCkpCSgf3oP2B1WFBaUYe+eI/D7zdxmWdG8sNnMGD60L2JiwjmuVA8w7Vsn0nix02KloD4d1AaADhIqFEshoUK/U6Mmt5uo972wh9lRW1fLjNnUP6aosAgmowm2sDBYzGbU1IpeM/RKVJdAyQLlZeXc2ZS0sYSEROaoc9Y5ER4RDrfXzRpybGxsh2T+dIJM8+JO1rhIAUfz2Fi4XWvB/Yu91fUKMtKCpOeXIC/72ZB7Uvay6aiszOZXTcec0WqQoUWceSILL77yIXbvPQeXx4b4pATcuWoRKioLER1lwtTxQxETYQ2QNF6MyYuDkZReyymz5FLTywWJh4tccnqHSd0ZoNexi/pzTqvlCnvBEOAhahju+AgGHorrUFGm10MpvYLs0WSifhdGjqlQsaHqJ5oaH3eypL+J4J0o6KT/+VQqJJX2FxUe6v1aiDRSOCgCBY4dM136t0qWAfkUuttEPgMtcrGQdfDTCyuJgYFy/oi8lGJivCkEQ6YoduJfRfmltDbFL6IPkKjlFPxlUhB0hBugE2QuvrokySPFAmhP0Bqm/6TAa65CvyPXbUu/i96JDpr3q5nC3NLnbUoJDHZdyqQLaWUGekPxHr3xj1aDDPF+fbBuPTJPFOPUmRrkF5bhltsXYcnSkXC7qlnDTumWBLuZQEDQrwheq4vqLUJY68WNXElPjGiNLhHlgOIQzFoNBa7MZRd/1QJV6LIw0e8nanvRD4XZhBl4+ExdpNZTpwQEK8OXOLhlsU6Jr3/zVQOZwDjoNC7Brqrg4K8ovBSAyxXdXlUAqtEIIzVv8qtQfUQAKjL6TGZTA3AKsMQEsTPXv7vw+7enm0y+57cZZIJBIngHSUFM+03GWppiLL5erJfG0oGeO7gY83p9D3ov+ezkepYJDTRX0tqU7349v+OloLKVIEOphSq+3r4bppBw1DnNyMjMxKKbpyApSXch6VQkFIeRurKMWjSGGhZS/HTB1CVt43pqKPyC4ybfvH9wjb5AO117159NQFpwzfulhvQa+owSLAhyVZUD+Ht27WYzPi0tDbNmzeLMM4rtVFZVcYOz2XPmoH///npPdn1umpyOjo1DfZtBpinhSy4Y2dQruBulBP2OsC7be5VLgk4ZPG/v7+vI+8s2BrLuJrgl9I0wd43HstUgQxbAhZwCnD2TDbMlDOERdvTr1x0mE2m1unkg3TAtmLn2GtSO0LBb8HpX9RRKFSc4KCkqxn/++j+RmJCIcePHw24Pw9ChQ5Gfl88ZaBs2bODA5EPf/S769OktAJVdYhfjvOwEmY6cWGm1kHAK7rMiM5duxGZbNzLIsK9FdwmSm1O6NwlsbsTOr60EGbG1iHLfTb3sAVgsIo4hXCsXs1kuviVbAzKdwNE60SZdjEWFxfjlL38Jh92OBQsXIn3gQMTGxcHjcWPTxk1Yu3YtF2lOnTYV1tDQgHnPjsROS6Z1g94GZ0sNV7o+SeCS64gO2i9EA0OHDCAHu1k6yoXZBq95yVvQGFCRI7kCZS+b9v7Ojr6/lGf0rlKBCOaOo78H09Z09PO11fddFsi01Zd33qd9R0CCjM8r3GUfrF2LnNxcDB0yBPfedy8Tar733nvYuWMHHOEO3LlyJQYPHiwsGW5YFpxB177Peqm7f5vcZVLDlemw5BojASR5xTieZmxYpXX1Zqb9vpkEMDFUEDPBjZ76K8GGUs+5tKOqKpDwILuPtt9It/+dLxNkGqu3Hes+af9huTG+gdxldBAbs9vlRmVFJbZt34533nkHjzzyCEaOHMEVygUFhfjrX/+Caf/HBnDHiuV65p6edXYNDMW3DWRkgJisl+CmXbJKn35KwRRsudxIgWN6l2DyzmtgGXbYIxDY0LtLhUK2F7hewbYByKiU89uioxNkWjRMV/Gk4Gw80oy+3LQJmqohNy8PGcczGGS8Pg/OnD7DGuOOnTtAzADTZ85sQlNu4bJoh/eljdUYZG4Ut6kEBfk+0i0mgYMykGTcRbrK5BA3BTLtMPxX7ZYEtFT3RYF/Godv2yFT02UvG3p/ac1eb2npeXl5vId79+4NxefzXT1p8m1bRR31vn7q0V6DL7/8Evn5BRw2GzBgAIaPGMEAs3//Png9XqT27InBQ4cwRQ2RlzY8rt6yoA1FIHngwAHmVbuR/PMy5iILKGXLhRsxo6o1y53GgyiMtm/fzpmQEyZM+FZ3pZSFttKylXEa+vv1wCTQCTKtWf3X4bnBVBfcV4a4FbhaVRD9yMpkqh8iN4xwyTT1opQ5eHWKT0kLkiBzvVdLB1sgss2v9MHTXJEPnmuWTKYOqUG6Fpc0vT+BzFtvvcWp9mPGjOHHbE2S0LX4XlfyTDI5gFxplBBBsbrTp09j9OjRvGau5bGRIEMKg+L1eq+eynolM/Atu7Y1C6qxW0W4YhqmJ0tQqScOaJglWJ85qFc1tXO75WCXkHSXXe8gE+wak/EGGdCn95UklsF+9xslU+xyticpFpSsQh1fiSLpRoo3Xc54yGukUkitO7744gtMmTKFx4iUkmv1oJgMxX4ZZNxudyfIXKszpT9XawCGLgkGmeZerSE7jWzj3PRVHRUXaQpkOuq7mxuvln5Oz0uAQlYYuTzIt06bTrbxvZgL8GLV/t8wNDuIeaGl73ul50lwJar/4MSHbzPoNh5Tsn5zcnJ4f/ft2/eaBhmyZDpB5kp3RbtcL/rqSKtDfkVrQeabj9Y6RoWmXGeNqNIu8fb1OkswtZBOgcbXtQQwaqtr2V02YaLwzTO33HVwyJgLdTClXjyUHk68VZJORLr+JCUSWzGNXo3olehPAYIj/YT68ygLUND7yFI1YWhehwwVTcwpjQlp79e7m7Qtl6sYE0GDRfNOdYrX8tEgJuNyua6P3Xstj2gbPBv361H9UDUfk4T6ic1TCo0GUr85wND9YvxMxNvW3Plt8PDBt1CIhdsAMxXrBiUTMHWn/igtBRlquDZ+/Pj6AsSr0GKhNaMjrZfDhw9zsStZLytXrkRKSsol56HhaynQFAGpku5UA/Vror+ous+T3CSU0iyaAbLgCQIZeb8O8nC2Zog6z73sEWhqH1+7oruBJeN0Oq/dJ73sCbk+LhTEoFTT4kdVbS3O5xSgpKwCLrcnIEQE/3TApgH8l9Zg/Hx+MC9c/dX1Ey152aTmKz9pvBRaD1CUpWazhiApIQ7duibAGiIanEn27OYsGaGdK6itqeWunuPGj4NRZ8D2X+MgI9+tpKQkUPNArRGaTceldaAPtaLz+shxYGD2+6D6auGqKobqqYYtzAGjPR4w2LilhUBvon3VOzhxK3RBOntJntrrY5vc8E/ZpIu0Kanc+u141cauQeC/tra2E2Su0lRImVleWYXjp7KgwgRHZAzMZqqVoEwjnV4/QDwaROV/qWeWAqsB7Y9QgnXufv3qpsAleDlIMGrZALFgI2oQZzUqyksR6QjFoAF9YTIaGGSCj0tZMyQia6prcOjgIYybMA4GzoojQXx9LNWWxhHEkAjfGIEMwYTgLxf8c0zSSu+s1qGm8AzO7P4CKDuHhMQkJIycDsT2BRQ7NcHQWczFOAn2cB1kWjZ1nWddhRG4mJdBdthotGPEHrgKz3k5X9nAkqmpqblenvty3vWavUbKf7JiMk6cQo3Li+j4LvCxNkpd30j4SFp9OUUt88MGhFdAsDfMHBODEtQvpqH4Dwi+Bn9ulRZF7QW8yD1/Bv3SeqBLQqygqwk6mgMZiskcPCQsmesNZFqz6Njm0KeHQJQtGt3CFbOtAs4iZHz5DqoObEC0pxgmkxkJ42YhbPwtgK0r5anxmqHOQRrHeIRN03lcmyMg43ZN7QEBPI1mj5WrwCLRX6rtxbYEvbZwsefn53MxJmeXdYLM1VmIUimnDIzjGadgJwsmzAEfzOzwohqWhouwZVYF3Ve456VQ1xcoC6/GvWCCBb9cyEqQf/9yx0aDoqgoLymE1eDD4IF9YDIYRbO0ZgL/Mm1Vgsz4cddPTOZyR4vXQqP+PTIip/i9qM47jv3vP43YomNI8JXBABXeuO6InnMfTD0nAZZo+A1mKOQ6kzEacp4F3bOj04EvliV3uWN0I1zH/Z1Ulfd1IPGjgXWi6N5wATL6bgmcwTaun+xbsVeJAV86vC9nfBqDCe1Pg9HQJjx5DSyZ6urqtofEy3njb9s1OhhUVFQi8+RpRMbGwWi1w8Mg00K3mByzoK6Z7joniooK4Ha52HqIiYnmmgOD0ciLkl1w3PLaD7fHzUWanG+vS7r6iI68eQtNGD1WJLDNB8Wgoby0CGa/EyMGDWDXTzDtzcWmOxhkyF02dvzY6yomc7nLWFq27DBTRNYYT4nmQV7GZpxY/zySas8jSqsE/Co8xhCE9p+EqCkrgISBgDEMRr9wm9UHYrgVIPkwhUBSKBmDlBcqvm17W6cpDfhSFqtknpaKR7CbUXS5paaD4jm5e+11LKlkUogkQyW3ckAZ5Hes77MlZp8nv5GDTMoFA1urHL/TpQWPYZCNQ7qGHE8D9/DQy6qDmh5K7wIlGtGfyWNgNBs5YedKrRkJMr169YJSWVl5HU/d5W7pq3+dFN0SZKLiE2Ewh8ENU6tARooKabhknz2DLz77FFFRkbxQfF4vU7N0796NEwwoac1AgXS/H1988TkGpqejS3IXqJqeuURgRCDEHTaDBVbjMWvasuKtomgMMlVlJTD5ajFi8MBWuW848F9di0OHD2HsuLE3tLusAZSzZJDCQJcxPifO7l2HC5teRaKvArGRNtQ6a+GurYM5PBZxk5cidMhsaKHxMPhp3jQoNJdeDxSvC566StRVlUH1umGLjEVobFfA7AAUS70Hpg22Q3NCKRhs/HrjQpFBKQ52IQXDo+yaS9mKcqmxYlav3zd87Ev34m2DV7yiWzQGGfFKukUiu50HGiWKtPb6z8U4CSeodKfR+woQEmBDWYn62uGxE0DBQKOKOF/wIeeLZIK4N91dgZE65RpbqFheYkTIXUZemk6QuaJl0zYXE8hknMhCTEIiFHNYqy2ZYFFPQHPqRCb279uDObNncwrtzp1fo6ammquEqSNmaWkZunXtiuQuXfDE449j8uTJGDx4CDIyjwsfap++GDRsOGu7lz4u/rkCqnEAqstLoHiqMXJI+jcC/82NHoPMoUMYN27cdZPC3Nw7XexzacXwZtcFsNByAb+7GhkbX0XV3nWIt3iRPGQYSqpqkJNxBJFGDZHdByJ++i0wxPWC32+G31ULb2kx6ory4CopQG1JLtxVRTD4vQhL7oWkCQthTuoPGMK4XTknGegy5cpFy6VpYJgmRfOjrs6LqupaJsOkVtJ1zjq4nC74fBorQIpCrQ1MCLOHIcIRjpjYaNhsVoTbrTCbKV7ZdM8jgthr9SCQkbT+8hnF8xLtkwdQfAJy/JTwQ+SgZG02dGfXv52AH69ihFNV4PFp7GYzmgwwKxrCqMW628M0NFwEXFXLnXIZ6IO96AAXvtrDHez1YHeZycgg05zS0Nw4N4jJVFRUXLsz09yb3ACfM8icPI2Y+AQoFgEyQidrTsiLl29oT/gZZI4cPoxFC+YjxGpBRsZx7Nu3jyuEz507h549e2HXrp2YO28eXnv1Vdw0cyaqa2oQarPBGhKCXXv34vYVdyIiMlL37zcWPbRcLuHOY6VKBSlDVRWlgKsKo4YO/Ebg/2JT18Bd9i0AGbn5KCNMaJR6uwXqoqgA3ppiZH76IrwZGxEdaUfy1IXwWiJxdMMHsJWdhsNsRGL6cJgSUlFRVoHqkkK4ykug1ZbD4q2DRXXB5K2FwWSAO2EgEuc+gNCU0dAMdpDqS7Or6S6plq24lm86+W5en4ZHIiNfAAAgAElEQVSaqjqcP38Bp7KykXX6AgoKi6FpQvARD5fZQqnulGInBCgVHnL7A7/GrjLqMZOWlorevVPRvVsSYmJsMJFADBLE1xfI6Akafic0XyngK4MCH4ymKKiGcCjGcKgsC4SjmUwbslKlRajCgAsVbnx5IBsncirhiHBgzPA0DOpiQwy82LV9G06cOM7FwG+98RZqa+vEtQHLRTTAI0/BXavu4rGk72krd1kDkCkvL+8EmZbvmzY/U7rLohMSAHMYfA3cZc3rlvIMoQ37kXXyBA4fPoQF8+fAZgvlqvnjx45h0ODBXIFOmg1ZCFQkuPb9tZg9ZzYqyitQVFzE2svxEyew8q67ERMXq0u9xs2ymgMZ4QKgguTKihIYGGTSeau0JAU5uE7m8KHDGDNuzA0dkxGjpasUgXoZ4f6gOIqz6AxOfvwcTBf2ITIpCcmzVwLRqcjetxWVOz9AlKsINosCr9ECr8fPGiulQlsMgFl1w6i6YIQGl9mOkIHTED3lFhhj+0CDnZUIATJCVWlrkFE1P4pLKrHv4BGczDiJispKbsyVlJSMhKQkduk6HHZYzBaYLaZADEEGxj0eL7tcyspKUVRYhNy8ArZ+wmwh6Ns3DcOGDUJSYjyMOsFrWz9/W272xpYMucMMmguqMw+1JYcA52mYDS5Y7CkIiUkHQpLgAwFNCPwKxdoCKgj/RtmoH24/jo/2F6PQGwmTQcGgtBisnNUTfSKACycykJ+bh65du+LrbV8HuqySi5L3GBHjKgp69+mDKZMnc8CfYjIK/WwDS4ZiMkQR1LNnTyhlZWWdINOWq6mV96qsrGJ3WTS5yyxh8PpbE5MRU8ciQi+pOHXyBL7++muMHzsGJpMBu3buYNdYcVExfKoPab1746tNX+K222/Dxx9/jBHDR+DYsWNI7ZnK1szXO3bgjhV3Io5Aj7LRAvZ1MOBdGvzoKqPiR2V5KQyeSowYMihQjNlSehhyl1Hl/NixY28od1l93KG+AlNaLww4eoUuh341D6rOHkDWJ/+EvSwL0WkDkHDT3dCiesNbXoBzn70Mf/Z+hPqq4afAhSUUZnssQsPjYLH4UZmXBa2iGFBMsHQfhNhJS2HqMRywxBAMBa3U5pWZVi5rPj2voATr1n+GnNxCDBjQD73TeqFLcgLCw+0BUJHLS65hoSuJAmRRLyQysTxelQt08/ILWVkiaz06OgqLFy1CcpckkCr0jW4Vl/PQ7XSNjMmwgBd+MRjUKtSVHkJN0VZY/WdgRiU0JQaObvNgiEyH6o+BTwmFqpjqLRrdGimtrMaLH+/C1mwLShED+L3oFqng4WUDMTLRAF91Ndx1blitNhQVFEFVfQKmKA7G7kauwkJ0TAzi4+PEeFP8S2fqaAt3WSAmU1pa2gky7bSwWnJbCTIckyGQ0S0Z8pc3f9SzAUi32YULF/DpJ5/AT30njEZ079YF48aNwdlz57Br1y5ERETC7XZh5syZyDp9GgX5+bCGhqK4uAjh4RGMVlOmTkdMbHwDroGWuu9YK1f8/BZVFWWAuwoj9JiMDNm2ZMHdiCDDoVrK4iGR4adECxKNIibCY8IA44OiuqC4nXBXFaPo+FaU7PsYoc5iJA2fjoiJy6E6Uvke+Ye24PzhLbD7XYiPjkZYbDwssYkwWq0oP3MIhfs3w1xTDltCdyROXgpj6ijWkP0G8vm3ZH01vwKbOkNo7So+37QZ+/YfwYIFC9GrV3eEhppZe67nZGv4FAGrXNYJUVKUZMUQcpmTVyi2cebsOaz78GP0TuuN+Qtmw2qWBb/t916XNxriKnpuj88naphkUN9XifKCnfCWb4ZVOwOLoQIGzY7QLkugxIyHhkT4FMo2pTXSsAQgJ78IL360A/uLwlFliIICL1LjQvCdxekYGGvGrs1f4cypk0hPT8cbr78Ol9MpQEa6y4j/zGDEuPHjcdddqwKtAzizTM8uuxKgIXdZwJIpKSlpyZ6/kvHtvPYSI1APMklQLDZ4yJIhH/llgYwffk2B6vPCr6lsElvMZhgNCnyaF26Pl7UVYgDmAkeDwn0qLBYzL0KzxQyDQWhNBuo/o+uTrRNIguSTQKa6ogz+RiDTIPjYxLgEx2RuNEuGQManUH2+CqOfGMkIZDROU4bfA81ZAa2qCM6CbNSdP4XqwrPQKnNhcZXDazQiefISOEbeDM1KBZhGaM5q1FYWwGpSEOKwQzMo8PtcKMk6iNzt62EuuYCw8AgkT5oHa/8pQEgs/IYwvrY9Dun6o3vX1NRi9TtrYbbYsGTpAoRaheUkoo0iNVmm2AaEma7lsxUn0/IFrw5beAzSNFyaENjrPvwMuXn5eOCBu2C3WTgO2Lq12h6j0PQ9yYBwM8hoMLLE9aG2ogTnTm5FtCUTduUsFFTC7Q2HLXESwrrMgoJ4dp+LZBB2bDKvYX5ePt5Z8yH2niyAo/sY1BnDYbOaMHF4GqaNSEac2Y9zmZnIL8hF127d8PX27XDW1gUeTBhSgmRz4ICBGD9hfKAba1uCTMCSKS4ubjXIfLPeIfgWYlHUC6iWOkg6bsKvpW8KBhlYbOwuq6/Xbk4rC+Y1kymPsiJFUJTILGTSpGSMVBZ6BmZNzzoRGzs4fNowraAl4yZEAWBUNNQwyJC7jLLLRKBTaOwXv1NwTIb6Z4weM/qGicmIzU2avAjA+qBBqyuCu+gUnIVn4C0+B0/xOWgVRTC6amEgRcFoBkIc8Md0Q+KYWbCkjYbfTJorpaFTDYwQ2JR27vPUour8UZzb+h4MORlw2GyIHzYJjtEL4A/tLu7FRyvrsFow8cEAQ9NbXVOLV19bjTPncrFkyTL0H9ATYTYrA4HBQGtE8KzVywl9/Qa5k+pzl4UbUaUUfNWPWqcXp06dxZo1H8Fhj8APHrkHYWFkJdWnOLfgkTv0FNpiPi/NuKAPqigtwufrPsCRQ19j5bLR6B6vwuUux1fbD6C00oGZCx9ESu/BUKihHRu5Rng9KrJOnsLqt1cjN78Ak2fOR5+hk+D0AWE2M7okRcERqiBMUznFndo4U8+isrIyLmUQAoDcj2L9EbhTV1xymbGrTFowekzmSi0ZAhmOyRQVFbUIZIRckNKh0SWSn15OW73jmf8i/xkou9BJABvKm4YLLvhWHboaOvjLBMicFinMuiVDAqM5S0YAgk79rZFWomunejBX7F+RoSS2r1hUUkOk37kIi7TfRlVu9f9sfShVBLEpJiMsGXKXDWeQaUxLf+mBrquuw+Ejh7lDoqR8b0niQAdPX6u+Tq5wAxVHwo+6yhIUHtuMuhNbYSnLhslD7hIXNIMJhtAohER1gSW+FywJqQiJT4U5JgkIjYRfsYisKi6yJIvABKgeVOVkIHvXh/Cd2YkwxYe49PGIGDkHSnQ/aOZwPROx9YpDS19SAg19Q9X/Nax67bV3cfBwJuJiE9C9R1cMGTwAqSldERlhh9lEqcjUlbX+7jw+urCQ2bZS6/b5VFRX1+LC+VwcOpqBjMwsTiroldoLP/z+SoSF0Zhco3YMvQwlZDjdUOFHaW0l3n3/fez9egdGjxiKW5bNRrjdBLfbg5279uOdNesQGZuAeTcvQK9+3eDzuzm1+dSJc/jgnfXQPEYsXriI0/tDbHaOuTF08ftTrEfFnt27cTrrDGeVfvDBB+y64qGVliG57QxGjB49CsuWLWOqIgaZNnSXBSyZwsLCZkFGEPWJBSACk0HWCudX676+YCNGXhAEMvVVp8LBygIpEK0LvljXh4OerNmHbOlOuMbOI5DJ1EGGLBlyl5F53BzbMk1GdXUFdu/ajeqqKg5+jho5kq/zuN2c/x5ckMVlWwFmAPLyEteVXosRxBggAUcUaQVX6QdE5CVHUIKMSdE48E91Mg1AJkh/vdSNKCZDlsyNBDJChhKfA7kzNVw4uhsXtr8PR3kWIn2VMBq8sMTGwtp9ACzdBsMY3xcGBykfdsBoZb+8sEJE0JbqkWQWWk15HrJ2fARPxleIdpUgLm0QIiYuAeL6ACYqzLVCoyysRknvbbkdAiCjKKiqrsabb72PkJBw9OyZxjVaObnnEeEIQ5fkRHTr1h1JiYlwOMI445FbTxt07jVK3VY1uFxO1FTXoqioBHk5Odx62FnnRExcHIYMG4qCgiKUFpfiuw8sR5jNItb7NeYwoyQGb2UFak9nw1tQyOD6ydavsOHYQUxasBBz5i5CeJQdRiMpYVaOZR07eghvvfcaTDYvho1Og2qug0tVcfDACWjVoXhwxaNIS+kNq9ksLFkQyMjiIbL2vFyuUFxShqSkRO426qxzCUWT97zgLTSaTOidloZhw4dzTEaCDC0xzjS7gjYhBQUFnBnIlkxBQcEl5bdkygk8m9Q2gutzG7s/AtW733SdSa062LypBxo9oyTYrdLg6QLD1JZ746rei0GG6mQSEiHdZc3RyvBw+1V89NE6VFVVomdKKnbv2ombZt3EBW0lxSWYMmUSu1HqamuZaj7EGsrFWT6vhzc00czUupwce7FaQ3nxOV1OpvKgz8nM1lQfa1eUQ282W9ii0MkwLlrHI6DJz+Q4HPj3VGH4YFGM2UAZucioSyAkS+bI0SPcz/xGsWSEM4AjM/CrXpzfuwk529cgui4XYQQyJsDeIw1hA0bBkJwOJaIHFHMk/CYbwNlggdC4PpY0G2SJepF7ch9ObnoL0RWZiA8FkibfDKX/NPhDkplA06+YOEan5yK2y5qXzlsSTpU1NVj91hpExyVj9uxp0LwqZ5llZGTi3OmznM5MApVih1R4aQuzifoYv5+1fa+mweshDV6D2WRCdFQEunXvhoED+qFLchIsIWZs3vw1TmaewUP3LofdESIyLHlvXH2VVHoNPHW1yN76Fao3bIGtvITjcXtz8xB383yMWroEIY4Y1ifJujUYrND89PY+ZGQdxr6MrVAtZVDNpcRWB81nw7gBN2NAt3Ew+i3M8CDks+A0k0oM1amxEk80Q7qngpINSHoK1b7eq8BgwlRDwp3O2WXkLrvCXlQNAv/5+fkXnZF6gBGniIELXp8690Pgbw1vJQc6yDvWiDpCvy/dW7L56SgrTDtpPek/9S1y9ZdQ2+3RYJAJBP4D+TdNBy/4r5oP7777LldCDx00CE6n8L9SDQxlmN18881MlU/pnwQaI0ePxp69+1BdWYlePVNZyyCXBoFKevogKAYjDh3Yzya00+XC/IULcOzYEa6fISE/bNgwdEnuCh8PPj3BN11pUqUQKcwiJkPusmFEK9OamIwi+smwJTO6de4y2iz0TpTQQKBKa5A0ZRqbgEux7aavlXeScTGNQab63BFkf70OSs4hOFzFsBg80MyhQHgCLAk9ENq1N0K6DoIpphdgiQQMVEtC2j6nKwnqEQ4Ka6jIO4XTm1bDkrMXUUotEkZNg2XkQvjtPQHFRtJDf9b20fWlFSNXR1VNLd56m0AmCXPnTIeZ6Irgh+rT4HG5UVvrRnV1FScIUHtqmisvFV/qAX7SsinrMdwRhpjoSDjCbAixmGExG1mwenwqNmzchszMM3jwvhVwBIFMQJlp5ey09em0FisL87HvuWcRn5WFWK+HEz48ETFIfvi7MPRMhUcxQzGaOFal6bRAfoMPJdVF2H30SxTWHIPXWM5gG+lIxITByxBn6YWSwgqmi+mS2JW9ErIolc7TDJRgQG+jx1c5o1GnpdFropj9KagwM7CrTZT0c2VWDN1LgkxqaiqUvLy8JmV2QLzJhRxACv30AApI0ybIatH9qo0nLRhsgitPBWrKFE4RP6g/ggRto0GpZxpu6+XRcfejvt2i4l+PyVA2CRPaNQ0w8skIkwvz83D40EGUlZYwdczMmTehpKSYC9cio6Jw7uxZzJkzGzt27EBEdDSOHT2G3r17Y2D/fqIwMyQUGcePc/CvtLQU/fv3R1x8HNZ+8AEWLlyE115/jfu5UGEVud9uv305RAfYiwsqsSxECrOIyVTrIFOvZbYkca6upo5BprWWDL3H0aNHkZGRwTQ5tNHj4+O58pnSOWUDMcmC23EzLRMzdMYpIqx0VaL6/FGUHd8G94UjMFYXwKJ5QMmqZNaojng4+k2Gre8EeELj4IiOh2Ki0koRR2OGOaplIuBxVSB372co3b0e4c4chMUnIX7mChi6jYTfGA5FsQRxX7XPW0ugIYFXWV2Nt95eixgCmbnTYCJXHesloob9Gwwn3KxOcOuJCnfh3uWUZ4oTEK5q1CGUkhwoxOHHhg3bOTZz/30rEB4e0mRFV+N4Y/u8ef1d+Zn1QBPFPMsvnMf+p55Et8JcxPi8ROsHX0ISkh56CFr3bvARjY7OUC6o3MgCUVHlrsThE18ju3g/3IYy+PwakhN6YsyAuXAgGWvfXYfKihqsWrEKYbYw3QVG7lM/YPRC8dVA0VziWQyUsWqBilCdskbfwXp6uHx6USej18pcgauM7tfAXZabm/sNkGlSvNGX6oU8PBTSiGngz5fWh8wi0tsv8UZoaMbK75B4JN0s0g/IeMLwG3xm8GSK34VQu7RAbu+FdSX3r6qqFu6y+IR6d1kzgX9aOFTrcuTwIQzo348DwPv27sXJk6cwYsRw5icj1xd1qJx1003Ytm0bSivKkZebi+nTZiA2JgbvvvsO7GFhqHM6GWQuXDiP5cvvQJjdgdWr3+aA4PPPv4SZN82Ex+vmGpqp02ZAIY2UkpoukiL2DZDxVGPYILJk6q9oiSVKIHP0yFGMGj2qxe4y8kN/9NFH2Lt3L1eGS2p1suSIifqWW25hDjcCTBpDaWlfyfxdzrWs0cPAWq3irYXmLENd3nEUZ+5FTW4WUFuBEJMJMT36wtClP7ZnlSOqW1+MmzSNXUscX1Oo3kKQI5JLhNp2u/JP4tym1dAu7IXNpCJ+5FyEj5wHvz1R76JJ2WXtt1ckyNC4UkzmjTffg9ur4I7ltyIywqYH+fXcyaDHYLu4iSaeAV1V96Bwj3tKWPEDTqcbb761HtVV1fjOg8sDICPVn44GF7kOGifWeCqrcfTtd4H9OxHtI/e0GQljR8M2ZzHUyGhoxC5NedlUZsBttkW5lNfvQVF5Dk6e3YWK2nxYw+zo02sokqL6wui24p/PPouSkjL85NGfweYgdyo52QmU/fD5yuCqOAo4sxGiaLCERMMYMwCqqQs0Nbx+DTRyKwaDDKuSVyBXG4BMTk5Ogz3f1BLkydZRRTxX0CX6g4jrJFRI/7uMMbVErIhpavhejWM6QZlqTZLhtd8Guhxh0pJrKqsoJnMGMQkJTJDp9ZOmevEUU95EBoXdC6++8gpSenRHWq+eOHb0CLxeH9J69cKFnAtISEjE3r27MX/uXHz99Q70SuuFY0ePMyEmuSc2bdrELrW9e/YI7QkaQkNCkJiUhE8+/YwBZ82aDzBrzmyUlJTCEmLB6NFjWOuiFMj62EzDt5QrgAL/1RXlurtsgE7AF5QgcpHBCcRkyJKhmMyo5mMyBCbnz5/Ha6+9xgFmGhupTdJn0mpJSEjAPffcwywCHOjUyShbMk9teQ7VSghfuRAoChVmwgNfTSmq8rNRnJMNa4gZFU4vvvp6P46dOo9VDzyEiZOnB6rgfaoK1euC2Ugz4QPz+HjcKNi/Cfl7P0SYuxSOxDTET1wEc/dB0DjtObTFnHjNva90S9J5DNi69s66IYFMVTVefv0d7Nx1mAv+pkwagy5dYmG1hnCRMLt39O0aiDTpffQC3x3kNCFQ9fn87MotKqnEV5v3YPPmHcwk8PB370Ckw0xOo4CNfTVARq41qcDwe6gqavMKUbB3G7wFFxAeG4Muo0cAUYlQKdnBKJxaPkWDj2IjEIWy9OoaRWJ8FfD6amE2hsIaEgmDZoHq9OCf/3wGZaVlePRfHoWdLBnNy3FacnW53QUoz/0MFlcGrJoTJms8LN1nwx82GKoWExjextKSwd5kgNFEbUFENurlHg1A5sL5C7rRVE8HLd3usrGWEBxC4De0POqtiXrxXw82QXaHTGMKpNQ2ePgGGKR/h57zHvDK6V8ceJagHMeGEHat5jE2PV0UkzlxMgsx8VSMGao3LeNExG/AqEjEkzOgoKAwH0cOHYTb6WTtfOTIkVxZTKSYVAmdnZ2NqsoKOBzhGDhwALJOnUZKSgoXX+7ctZtjFOTGiIyOgNlkRNapLF5YGZmZeOCBB1FUVISzZ7NZIA8bNhwRUREkUbjWg102AfVN/iLWiIzJUHaZ0VeDYen9AyR/zS3aQJ1MbW3AkqHKZH7zJtov0/nE5Lt69Wps3LiRASYsLEx/Twtyc3NRUlLCQBMdFYUlS5Zg1uzZTAbaoKdK8H5quU5Uv2H19PD6IWlEr97g/pQ6rlP5697ygPLm98HnduPAwX144803kXMhD3a7Az9/7DH0GzCQp58q3g8dOgifqxY9EhxATT6iIuywhEXCXVmI8zs+hq/oNGwhZsQOGs11MpqjFxR/KAfbKV4VfNAYXo5QJr87jX23bt0QFxePkBByyQkG3+rqGryxei2KS+vgCA9DXU0l9zbq2jUZXZKTERUVwfFEi8XE1hkn/+jAQ5aaTwWn2Hu9GmpqXMzanJtfjOzzuSgsKkKI1QqPy4swqxn33bMEUXYzuxllPIbick6n87Leq7k1KhZj4P/E6YqC4qIiFBYWIjEhkZW10FCr3qBMhd9dA7hrYVR8UEwaNLUSPm8VVNUFp+ZGuUeFarEjJDQW9rAYBhVqQhdgR+aGdBaWCl5nLZ57/llUlJThkXvug1paCrWinPnqIrokwR+tobzoC4R6MxGi1nFdlaX7fGiOYfApxEmoZxlyAzRZryTWq2IycKLPlR4SZDgmcz47m0FGiod62BDCWvYqEPtO7r5gC4NHuF746dcEnCONna+srdRDlth7OoDp8jOAoLqLTfxbEAbSZAb2ayOfYuOBuQxZcaVj2+rraTNmnDjJAVKjJRQqxWQMFCQl37NuH7IEIh+V6NUiYyKsTXp9UL1eXhghIVZmr/V6BcU3zQE1L6PfCVBIOFFAlQ6P1wu/qsFM/SMMwNEjh3HyxEn+nEBl1qw5sJjM8Hg97Ae3hITAR2Y9l1WLZ2PhJKQ/Lw22DHS3B9XwlJcWwG5Skd6nl8iabNL6/OaQ0Qyzu+zYUYwcNbLZfjJkvTz99NO8wW02G6ZNm8a0OfTexBrw6aefcjHajOkzMGnSJI7RkMbXwHXEZSfC6mG3NtUdNa7/amp29XoVRg096YBXNBEQ0sBKlwRbTWJFimmVWlN9eUAAoDQVq1e/iXfefRcetwddu3TBr/7jV0imvj+qyhlar776Knp1T8LEoSmozdiKOIMTYeHhCAkNQU3ReVSW5sLm98EWn4zIqStgTJlExO6orXGhuLiE7yMbaIlnarnWKrVcUmJycnLQp09fDBiQjshIcsWIo7q2Dm+/ux7hkfEYP2EocnPzcO5sNgryCzlJhZglQiwhsIVaYQ21wUSWJY85JXgbUOdV4PSqcLqA8koXamq9qCivYRfvsOFpGDK4K06dzED++fO4d8USRNqFAGbxyO40J68HYnJuj6MJfQd5ebk4nXUaPdN6YUD/AYiNjeHJJouEMwrdLvhdefBWn4HXlQ3VVQioTpSrdThVWYcaSjU3xyIiogsS47ojIbI7QgyRUPxWGDUTFJC1psHjdOL5515AWXEhls+Yhoqt2xBeXgKbAkQP6A3HpH6oce2CSc2CiequLJGwdJ8DLXwI3IY49pRwIrxmhNFPGW00916RtmyiJoaNu/K2fgRp7Kk2h5Ra5dzZM/VxWLnQZBc1uRFkmpf+XfW4IQIz9ZAT8KI2fKqA2av/wmpcY4TQN6Ce782FRbxBRRV60LZs4o2DkgWC1GvRK6Plm6f1Q3llV9DGJs37eMYJmKx22MMjocEEHxNTisZh7Jbi5kN6UE9PQZTCnfzyIrNEvDjRpzMgE3OrHoTkwksCBO6AJywk+snOBfbra/D6XCgtKeVrKEYj05o50BqwdcHUJY1dZfXEhIJhQCRV+nH+3Gn0S0lGt4Q4sUaa2pkXGUIGmaN6TEbOfxPXk7Bcv349XnnlFRYoFHshl9j48aJtM1U9HzxwgAP+gyjwb7UGKE1EmqcfNbU17G4rKijktgc0nEQqmpqSygkUwXTy33hcRWFQLyosZEFaXFzMApzYhXukpCI5OZmtpgAWBwWG6fspi47cHkT5QzQf4XY7HOF2PPvPZ7Fhwxd8r4ED0/HYY4/BbrcjK+sUXn31NWRmnsCIQX2xePow1B3ZiLiqc7BoNVwLQ/+RQ9NIjLsh4YiavBRhw+ZBNUZB8ZuZmqWx5dJakKH3IaWFxpzG1mQStDFskfiBamct3n73E0RFJ2H2nHEwmYjuSIXL6UZZWTXKyqo41b6itAK1dXWoqauDR/VB9Stww4azeVVw+4jAMR4RMXEijqb44XLVcJpvQmw0aqrK2UL4zqo5iHSYdJChWBXRzwha/Mux0Jrb1fWKccMzaTy8Hg+vMROxGesWuGJU4ffWwV16Dp6y/fC7jsCglsCoeZg9ucCn4lB5JUpNNripBYMSCqvZgZTkQUjrOgLhpkQYtBAY/GbeV946D57/54soLSrA4mGD4NuyFV1rK2D3qzClJiNs8QS4/Ieh+E/DqLmhmiNg7jEbntB+KPcq8PpUWK1hsIdEwKxRXyFyo/r0FGYzTGbqaXNlKjpZMgQybMmcO31aVug0ObasfQUMGD0LTM+55oVJC7mRJsTVLMGXSZr3oEy15ha1rFAP4JzunuHr5ADQgg4kI8i2cHrRYVBSwJUNV3NL7so/Ly4tw8msbIRHRCI0zMH0HwQSpGHUU8zIKoSGVDJicqSGXG9dCGdWfVtXMZ4y7Vj/ndklxPUC0mTihoQJWYchPpBZ9oL7qt41xvlSerUx3Yvo5ikoqWoejB7SH1adir0llkxwTIYsmVGjRl3UkqFH9/m8zCb98ssvs2AhgTdjxgysWCHgR5kAACAASURBVLGCtV7xejqNBscNJHUOCfgatgq2b9/OLkbK9CMXDQ0dWUG9e6dh8uQpGD58OPczCT5kTILccUQ8SgVvBDDCFeWH2WRGdGwsRo0aialTpjCHlIxb0BqmZz114gS+/PIrBgzSvOk7Z0ybiqlTp+LvTz3JfYDo8SnD7ic/+Qlr5u+8/TZ27tzFlseEMSOwbN5kVJ/eA0POEZjrCmD2uWDkAj1SNgDVEoXoCQthG7kAmikKBliCjKu2UsDqSxukTictmajoRMydO55Tj+Uhv5VaAdD+9VHvGCKQVDWUVrqwffdpZOWUIbVnV/TvnYyuSWEwE0gpVMvlRVGxE8eP5ODkqWxEhodi5W2TEB9JMTayZCizsd7bcaXCsqndLfwqrRg7rQ6eylOoyd8Nk/soQv2FnPklsskMKPAqOFjlRGmIDU7FykkhlOMQagpHr65DMajHJFiVKJj8DhhVBV6nDy/883mUFuZh0bCB0DZvRXdXNexkMfVIhu3miaj1H4JROw2jn0DGDjVhDI6XGJFVVACYFNitdgzpOwlxjlQYVcFnJ2IyRrYqr3TcGoDM6VOnBBzwmInAmXBsNIzCSAEUsP5l4ldwqUwjaS5y+BvnyQVPmwAGSnmtt2Pk79Iq0vWGQDc8+YTiPg2nuv5f8g0C338NWzQUSC8uKcf5nFwGF5poYQtI4R7kqWyc/yvRXDL56pngwWNzse3AFEb6h2J4ZOpoUMJGg+w+6dqpj8fQxhZLRqQrcOaUSs2XTOjXuxfsVjLxdYLhVloy1IKgobvsm1ueXKgk5J966ikGCTqoZ8miRYu4IVtkZFSAp0kuGFrDpSUl+PKrL7Fl82bO6SeNXGabSQWIfsbFxXFq+Pz581mblgdZL0eOHGXG62PHj7PFpC9mkW6rb5RQq5XbKSxecjN6paWxdUXfdfLECbz+/7f3HdxxXUeaX0egGzlHgiTAnAAmiRSjZImSSGpEZctJsj2WLYedM57/MLPn7O6E3dlxlCwnRSvYooIlMecMJjCBJIgMIqdG6rCn6oZ3X3cjMUiaHcLHNtF4/d59N9RX4auqP/wRFy9d5JpW5CYi4sVTTz7J5UL+x//6n7hy9QqP6cEND3Is6b0/v4ddO3dhJDiMeXPm4plnnsGssikIBToRaKtFX3MNQm11CHc1MKWZxHpSThEy7/oK3FPuQtiVJn3wBApSTNrWf3yFKVr4iN+jOilGIugNDOH1t/4Mvz8Fmzc/AD/VFjPOKz02RHtGbqnhCNDc1Yd9B8+go3MI8xbNx8yybKQlEF2BLHBRK4Hmib43OBDG+Qu1OHDiAkpKZ2D1slKk+l3cYoIcwjcfVRh7Lsx4dTR42r8ZRjBwGYHmPQj1nEJCuAXeyCDPBXsXiO4bdKKyexCtnmQMOOltKRdqhAHY787A3KmrMLv4LiREcuANJyAUCOKVX72Etuv12Lx4HkI79mLqcD+SSLEoyUfyltUI4Axc4StwRwIIe5LQl7kAB2q7UDfYiZAzgkSnH4vL1qOs4G54w8mc3Ekbl1yWt8KSsbnLLl28oJ1jQqZZIkm5jm1yTcp+y0FjCXoTY4TMEldFW16KBx/jotclaxTMWXQzFZcxkUXJxXiufnMswoXz5SUEKGV7aDiI3v4+dqExf8uofCBK/5OPPxpalYJglP2XH8U4L40PzL7gYk5lLoJcrFhgstyiliIiFBIboDnA7gIS9FxZIEYRGF+Q0ZPIjTQRkKHN1drWipdeeompyyrOkJqais0bN2HDhg1IS5WxApnZ3N3dhXffeRe7d+/m/CJ65fS0NM4R8vuT0NnViabGRq52QO+Xnp6O733vBbZKCDzDoTC78l579VUGAgINigVlZ5M/PY3Zd5TESjk7dC0RLVbcvQLfeO5b7M6jgoW/+c1vcOjgQf57gteLhMQEJCWl4IknnkRp6XT80z/9I65fb+GaUuvXr2PyxqeffsoWD9Wj+uY3v8GgRYQNgfEjCI8MINzfjaHeNgR6O4kkjeTMTCRkU9fVDHbFxrb1HX89JnaFoeCFw+gbGMLvX/0TLl2qwcaND2LZ8kVI8iXAxdnkUi9RVjSx0YZGsPtoFeoaOrBu1WIU5KYhwQ14qKI359CoyLFgTJDrl3rMVF1qwLYDZ7B4cTnuWjIViS6uTw2XAtGJDX7SV8VV3OK4TCLhAXQ1bkOwYw+8oUYkRgbgJotDti2gKWgKO3GyexjX3X4EnIlsixHIUL6MO+JGSmIhVix4CPnJc+ENJSMSGMErv3oZbdcbsGnxAoR37EPJUIBBJlKSh9RHV2HAUQV3+DLckUGEPEnozZyPvXUduDbUgZA7gkRHEipKV2NW/t3wRFLhDvvgghtOt8iVudkfO8hcECAj9RGrvo21FWzPE+4q+ZFZx0x9Lr1ZNgCQY5YsaIsmYHxHnBRFQlOOGVXeQGU2S3ed9ICwPq1B0ZwYa7WlomV5lb6knY2E00rmFdlmXBqaHFSPWnzbr5awt0I0Y2wWpSXotRRTJBLeZBzI+JtdU7CS5dQ2Gc3Hf6NUyIG+AZypOsOMOW5LoCznqN1PW5AsJ0q+/MUvf8HgoPzxVF32qSeeZHdVot/Pe4Xquu3evYuFPOUIJXi8KK8oZxfbtGnTGRA6O7u4RfVHH33ElRHoHSoqFuPHP/4xMjIzONj9H//+f3Hh4kXefkQXf3DDBpSXlyMtPY1jFVR14f33t6KqqorjKsQ0+sGLL2LlipWoqjqLf/7nf2bLKzkpGWvXreXvkoutsHgKs/r++z/9I1tHFOPIzMxCYCDAdbsIgKir6fwFC1jrtLttqPCmOBzC7ScSA4WbVCRgqArc0UJkPPe1un4ibhQCgL7BQfzx1fdwtuoyHK4wCvNzuK8RuSCzMlI5/sQhQS7j78CVxjb8dXclKhbNw8JZeUhyuzimJEKSwg1Mb6cZZJRa4gQCIxHsPXIOJ6uq8fiW+1GY46dekpykyt6Xm5WWk/i+UsqFRStO9FBvPbpqt8I7dAaJkQ6KuAreKFXYpv9zRNASduN4dwiNbh8GnWQtiyoO4kSSquDF3OJyLJq+Hj4UAP3AKxT4b2nEpooFCO/cj5IhYcmEpxQg7dF7MOCsgitIlvAgQgRemfOxr64TdYMdGPEE4XOkoLx0Febk3wV3OA2uiA9OENMP3IJ5Ius81tTYQObC+XN2/FV1xwxTxXIf2PFFCXg9IPkdsbDKDrcATKOIOToZYzE3OW88Rgc6IJZ1JQL58s4xarq0esQpM7aXaUmpAX6eW28Su3TcS6NVpTiqkwTgGEdiHHehAn1LgIh/KUtl/BMafx7jCayJblpFYR7oH4jDLtMj1TOl3BZDw8PYu3s3u5TI/UWCnQRsUVERHn/sMaxeu5YZY7VXa/DSyy/jbNVZjt9Qzsyjj25BcckUWRRQdA8ki+HNt97EZ59+isFBSkZNwU//4R9QOn06Ew3efOst3mZFxXT/x/k+5GYQAl3sucrKE/jdb3+L+voGzm0i6vSzzzyDI0eO4uc//xko16WsrAw//MGLKCEWDgnTcBgHDx7A//k//67L4pBLkFY6NyeHE0pXr17NbD8FMGq+R6ukoP9uJFCPu9Vu4gJaw/6BQbz19gdI9Gdg5qxSVFKBzPpaZkHm5hcgLzcPmZnp8Cclwen14cyVFvQNB/HAvRXISfHCJeuaUQCd8jaoCjMpDx5uE0xl74cFA9DlQncgiD/9eQdKZ07HPctmIolIatIiZ3i9Da7y0faz0LtFQX9HZAjdLScx1PgxUiI18ESIVCJifqL7ZxghhwttQS+OdwfR7PJj0EXtloWmLoprOOByupGdkIuV8zcjyzcL4X4HfvfSy+hobsDmioUI7dzP7jI/gUxxIVIfXYFB53k4glfhiPQj5PVhIGMB9tV1oX6oE0HXMBKdyagoXYs5+XfDHUkVxAKQq94B960GmfPnqmKJwIbssoyNaIESLeXjSX0ZHlZ4IzduVAaBkGWa2iweLo6V8PVqkJPamBKDFg4aiKifYWlA0e40vvNt2Hg3cS4n+NV4oHKDgGkjZug4vnZxWqbfWPefOMgIBTs+KMZ7ebJkCAiWLlsaZcnY76G0R/q0p7sbu3btxEcff4y21lZ2WxFVmSrNfv8HP0BhfgG2b9uGN958Ez29PUyv/Na3nsO8efN00yZTYyeL4xe/+AWzxigH5IUXvs/feenll3D+3Dn4En3Y/MhmbNy4CUnJSbZyKLTnyC32+z/8HgcPHODgNlWU/u63v41du3dzyR6yGJcsWYrvvfA9ZGVmMRARA4tYZb/69a9FQpyCEqcDWVlZeObpZ7Bq9Sp4PcTmMs6c4WAYzUpRSsVk1mGCGzPmsr4AgcxWZGQXYMMDKxEcDrOFVlffgMbmFvT09HGjPGI6jUQS0D3iw91rlmPV8qnwh8PcN4UAIjklma09CiQTtZ7GXpCXzzGt4uIi5BXkIuR0YvvuM2jrGcbD91cgI5F0csuyv9F3mPz3VHqBkGAI9aOtbg8c7TuRGmmE20Hl9kVnTKE4UBM7L9pGvDjdNYJmdyIGXWrk4ulEyaGaZsmeDNw9bzOmZFQgGIjgdy+/jI6mBjxSsRDBXYdQMhyAD8OIFOci/W9WIICLcIZq4Y70Ax4vAhnzsK++B7XDPQg5g/A6E1Betgaz2JIhdxn1+nHxebnllsy5s2f0qeUta7pIbBaB1HJtuQMG99+2Igaq2LDH7hAS4GLZPab40MPQlowkCWh3l3Ev9QzjWdHijGFIxSrUdf8pgSZGhEz+LIz2jai1si4bDRxuEODGGbHKkyGQIXeZXVOPDzIKxCjesnPnTrz3HvXQ6GP0JBfY5k2b8fDDD+GtN9/C9h07EAqHcN99X8Gzzz4bwxxTw6M8kJ///OdMGyar6IUXXuDEyFdeeQXt7W3Izy/AD37wfcyZO1cDoZlbQ+6ut99+m91uwVAQS5cuxbeffx4fbP0AWz/YymyytWvW4pvf+hbTk0mHInceFT595513+GykJCeLxlPtHSwACBCff/7bKC4uljwNzYiJ8Q0pMIlWqG4vyAiXdm//IPdFIQryAw+sZnaZ6GpJsZSgKIg5OIChkRE0tPXjswNnsObeVSiflQNH7wD+8v77HHvKyMjC1atXeY3Kyqbj0KEjKCoswtUrV7Bg4TzMKJuGkBM4eb4eR0/XYdOGJShM88AzkQJ5t+7kWNY/0adZRoW5Anl73TZEuvYgI9wCtyMgwhG0hSOUPUPOMz96Bjyobh9Eu9OLQdlYTss/qq4cdsLjSca8+RtQUrACwWEnfvObl9FYU4MHKirgOnQUWeERuB3D8BRkofjBu9EbrkEk0gZvZJgtoUD6FBxu6ELDQB+DTKIzEfPL7kJZUQW8zlQkOJJEVWcj4/9mpocUCqIwT506FY6zp08rp7+ETiNqrFFHMVEEq0i7U6SlEW/T6tiNLHRnC/bLcyEUWwuQrNCy4obJhFATDIxkzLj+fsmYsvyj9vY35vgZdMyuSTczq1/od3nXRo1gtIZjowODjMNaxUr1HaNp0+oPk29qNtFpIncZBf5Hs2Q0E0yoe0Lrk5YSxS/eefsdfPDBVhmfAebOnYPvfue7eOON13H82HGOZzz19NPMGiNhH514Sfe6fOUyfvGzn+NqTQ18fh++/8IL7EZ77bXXmf48Y8YM/PgnP0FBQYG9XbAcB5VAee9dGseHXGtu5apVePaZr+K1117F/v374fUm8POfePJJzqWhXd/X28s5P1T2h4CNYi8Ur6HGUxSTIW2e4kcUl/HQuA3r8MvhLhP7iyyZP73zZ2RmZuP+Devh8QiKLP1w6J6Sd2Wcrba5D29+tBur192N+VOz4AlGcOJ4Jc5fOI958+ZzXGvVqlXc8OyzbbvhcbnR29eLRQvnY3rpFHYrna9twq4jV7Dx/iUoSfcggcrc3x4daNQtzNIx4mSqNce/hrrRVv8Zwl27kBVqh9tJIBNi/EHYg1AoEaEeD3qu9aO1rRehCFUIIAK2qp5MVo8LIWqpnpqCknseQfbslQg5vfhw+6d4+623keP2ILW3j/Nhws4I3IlJ8E8rwHC4FcMYFrlDlHvkTUDbUAS9IWr1TU2dPUhPyUJ2ehFW3LUGdy1dKSwZioXd6mTM06dOWvmKpkWgXUpGHgwnN8kAojzcwvVk4JP8xQIAeVNbYrMVwOcYWRR1lqQG5YiQe5smXNFrZX9HxbSNWWxTERcAInyb0V4aMTY5ZnqCATS3V8ubqIj94q670UD9rRqxjskExgcZirtw2fhAP2u6qpQ/7aempkb867/+G67V1DDldfasWSyYX3v1NRZeBFIUi9ny2Bb4fVRg0P5Dls7OHTvw+utvoKurC1OKi/GjH/8I1dWX8eabb7KWVlIyBT/58U84niPOgRGNDEcQGBzAm2+8gU8++YQrMWx4cAMXLCXSwdmzVeyCIzbZxk0buV8PuVAo1+alX7/ECaSkAK1csYJBiKoW7Nq5k8vh+/0+PPfcc1i1arVw81EdtFu1ALfoPkODI/h0xy7UNzTiwYcfRFF+DrfRVvJCu+4cQH1bL97+aBdW3LMc86blIRwYQFdnF1f/bmlu4fNbUjKVG2Dt23cQmRlZaGluwoIFc5Cbl42Qw4H6tk7sr7yKh+5bgqkZCfDI/iq36HUmdBvF2KTxMI1nuButtZ/C0b0b6aFOuB2DDD7hYSDY48BgSxAD1wYQaQvBM+iFK0w0b1nXTbZJFrn5DvRnZSN94xYkli9FxJ2I1p4ufPLZNlyqOs+KFP2HdwEBEseEQiK2I1tsiE8s2e3ipGySw07ce999WL92PV8rmpfdvPJoC/yfPllp259CUEsLIsqPHhv5MHz5chm0NaICLbblMe5gHkhFUNR5lirALw8tx2XoRsYhtihUIpBmMaYt8lt0wT1jLKaPUNdNmmTcYEI7785FNzQDlPFfda6KXUx2dplYOWJwUYC/8kQlWlqaseGBDSgpKZH9VcDtD/7t3/4Nly5d4tgMBcup3Mxvf/sKM79IcFVUlOMb3/gmu57oYCmAJfBqaGzAb1/5LbdCICFOuTJPPvUkKisr8cc//AFdXd1IS0vFs1/7GlasXMnWkOmWonI+xB4j99y+fXt57z719FMoX1TOJXBqa6+x6+1rX3sW69atF50hEUFdbS1+/vNfoLq6mt18X7n/fjz11FNMh/7tb17hunJU1WHqtGl4/rnn2aUkyrHc0DTfti/RnFPe18efbOcSRksqyjF1agnXLKO5Eqw3VifR2jeEN7fuwex5s3HXvCkI9vdzF0yy9KiYJtHLr12rQ39/AC6XF3PmzMWFc+eQlZXBWnd6biZqGttx4WobHr5/KfKTPaDc+M/7JxpknMF+tNfvQbhtF9KCbfCEhhHqD6G/KYBAwyDQFkFCwAtv0MNVCsw0MuUJIhcWlZkKFBJr7Clg1hyEvR6O1RA7ktsqS8Q2vTcc044yGliCSllKZ4pyuchmIFetqLOGWwYyNnfZycoTlqqvBfdo+azGqKVFIyP2Yj0Nt5bNnREHcEzQUDRjtS0EsUwlaop+Epafzr551JC15y0GMuNtNWnhSNwSoCoIBv/VLZnP+2BGP08JegKZc1XnsGTpkphS/5SXQr1mqKx/7bVrXGHgnntW4ZFHHgHlxwwEAti7by/+8pf32a1FeTvPPf8cMtLT8ctf/ooFNu0bOlzr19/LeShEQybLgYLRBEzbtn2GypMnueYZtQp+4fsvoLS0DFevXsFLv/41rl6t4f0ye+4cbN68mWMlpAWSVkn3P3XyJJeU+fijjxmYiFVFsZS8vFwGETqEmZkZ+Pa3vy1o2lzdOowLFy7gl0TFbm7m/BmqlP3wxo08B/v37WdWGyWSUrdIAuCvPvss8gvybWfvi15D9XwK6jc0XcexY8fZ5UhEB5pnUgaofpzPn8iB/WFHAj7efQZurwP3r5qP1ARah0E+89SozO1yc+uAixeq+T1nzixjCrSK6Ua8Cfho+34k+jNx76p5SHM74LrJKsKTnkPZD4cD9bS5qIQThjDQVoXAte1I6KnBcPN1DNf3IXId8AYS4BnxwhMmy4VsipAUpcKKINAR4snB1ZpH5sxEypZnEMorRNDjhovcgdQqgpUj6qopyj9pVVyJSVsM3SQ8CetXMRdp75FVTPe5FZaMDWQqTxzn4iX0I8wn4eO2LAPjb+Z18o30d4xcG3kz1Y7NClAaER2FO6qQpg7Mc6UYwefXbjJZkdmcQQ1IirlsIpX2j5m2l/3fymUm3H8K4e+AzKQP1236AsVkyBfPIKPL4YhdOhIKcsXl1157jQuA0nInJnhRVlqGvPx8dm9dunQRgf4A76X58+fjhz98ERcuXMRLL/2ay8VTUIDcaJSRT24Y8v1TsVCyci5evMhFJEm5IdB6+umnsXrNGs5jIdB6+513uJQNH2hifWVnc9yEkjHJeqHvE1g9+9Wv4v333+ffyWp58YcvMnuMxkCWEMVyiFk2d+48Fph00E+cOIGXf/MyOtraWQA/89WvYv269Rz0J/bcm2++hT179jD40d8JhO5/4AGmNH/ZfoQQI6szhNaOdly8eBlVZ8+hsbEJw0MhjnN5qfS/LxO9gz4kp6fjsc0rUFSQDA/FF1hYW0ZaOBLmxFcCGAJtVYvvYmM33v3rPjyw/i7MK82Bz/CP37zjZ7KzKiQTi5XwECKD11F//DP0ntgDd10TMntd8I+kAlSHLByE0ynyYSwrxgIXqvVH8nHYl4TEhzfAe886hH2pGKF26Cy1zXL8cfxM8dIWeHBKpos4plKsFchM9o3jXW8DmRPHj4l+YjGer2iisbhVdJkYO3PFjIrIR0s0sNlGKj4T7Uimmk5SA2E9xSglI8xHK0lGWB9s8oi4C594kYQlPpfQOSptVm4GmU1MmV13LJlbsb1uzT0YZM5Vcd2waJCh1SZN/xe//CWqL15ESFba1TkqcgikAZMr7NEtj3IbZyICvPXWW8xsUvEBOmBCeyOLmSpVD4vCoi4X04opyE5utpTUFH1Caq/Vcv4LgQcBHu02dUBVTxGiTW98+GFmidXV1TP9+Kc//XvU1tZx35tAoJ8to7/93t9yIU76ITfdnj278eqrrzJYURImxV6WLlvGBRfpbBB1+ve/+z1qrl3jMZNV8LWvf50JAl8mWr6ySNUR5/YQVA5mcBjdPb3obO8C9VKi9+zoCiAw4kbfsBPFJUVYs2oWkn0Umo5qZiaPP92H8ScSQVv3ID7ccRyexFRsuHchsnxOeJU8MLLlbs2unMhdhFyhsTnDQwAGca3yKJo++QhZTe3IHh5CQphcYyLx2kFttOV7ymLmok4gv6sTIZcbwTmzkfrY45SUhYjLgzAVt+Uy/fFdgtE1AicTr7tVe8gGMsePHbVXjVEjsvmu1OQKOIqDmdrI0F83XWfmZBjVXXT8RxVB18ww6b5SwVRpyZjBVSMtNCb50rYVzPcxkdQypXQJdvZt3/n5QmdABf7JCjl3/hyWLLbcZWrNaRkpMH/48GF8SC6zujqRuCh3IQlfn8/PMYD1996LJYsXw+dPwqt//IO0QBz8NwIGCi5TIqdI3hTugiS/+C7ltVAeC2XxczVqaclTYiBZSsQAo7pl1IXTJEyQ2+yu5cuxaOEivPP222jv7EBBfj7+7r/9HTdVe++99zASHGELi9xl2dk5DBAEcFQ65s9Evw4EkJ+fz39nirSk7lMBzp07djI1mq6nWE7F4sX4+je+wdWzvyw/Kk4QPR6hNVsKHsVuguEIhkLAlYYOHDtxEUVFuVg0bwoyUnzci43L0husVroDtZ243tGDg6cu4XrHIO5dswzT8vzwGR1YTan1+c6LAFQnNZMLD2Gwqwv1O3Zi5MgJZPa0wx8a5gI/3LCOLDVZOJhCBBwnkfkxIVcCXMXF8G54AK6FC4BEH7dSFqkYE7TRJhiaGo3ufqPzRoF/ovAzhfnokcO2avi8BaIFM1sJiipq4aIFEvahaDSU34kNyRi1Z6R1Isw2rn8n62ipJEzpwtPPt2hqsdbgaPAXS/AVrLaoz7WL7kan9s73bsUMcJ4Mgcy5c2zJxFjLMkRHwHK5upoFd83VGqYXkxuF6oNRefw5c+aw75/cYBR8/vWvfsXUYaL+PvHEE5g1cya70AikKDmTBDZ1z6Ssfmr6RiVkKPgsrGgRJFU/ZLGQW45iKOfPn+cKybSHKc5DB4vYbL6ERP4bgVh6ehoDFrnjrly5wkKoIL8ACxct5L4qypK5eOkSrlyuZrdQaloaKsorkJ6RbtXeozL6vb04fPgQ+vr6WaOnMS6qKGf323+GH7tmLQEHEQyGIrhQ04L9B6uQkpyBxYtmoKAwBb4EcQ3zoagaw3AY1xrbcez0Rap3jRV3LcDU/GQks2iYjN5+O2bLcuRzdfLICAvPgaZWtOzZi8ETR5HS24GUUBBu7mNOfDKVGW0AjNePYHExktethWvRfCCJ8qiIHKLTc2/p4G0VVyaRND3aIMiSIZBhMg6BjLhQ6mkKVfWL22Pu4vkqEdJcUAIDYYqw20kutqrGRVOvyQAWf1iV5+UeESr4TkjDLAgJbnazUNHwRMDLLJnB7rIoE1IOV9OeLW+kcr9ZCywTRL5UbodbupP+E92M3GXnz51HxZKKWHeZqZ3JRmEUKCbGGQGKx5sg2V6WEtHb3Y2f/cfPmDBARIAf/vCHWLxkCTO1WHuUB4uLeupmY0LBYdeHLGmktWNZrp/2H1lB9Gz6nnKbib0rysTwP/mesg2F0rHYYDcamxnuaD4/RrULZSnpFho0XiUMZFfJL5p+bm4vmhfV9npi206czCAcqGnpx94DVWhu7kZufi6KphTCm0R5RGCrsa6+Ga2tnZg9PRerls9GfqYPXirz/0Xji1hprboSyJBco/4+VKI/1N6B5uOH0HZwL9Lau+EPhZAQAhKoMgXx7Fh5cmKE6uzNmoHklRsMQgAAIABJREFUNffAWToN8CUBDmKUSebvxCb0C73KBjJHDh+KcuGNsVKWpatfwLQGNGNM3oJL+GvQshMLzPUQJWQkRjMaWcwRcVatNE2Tq2mRFOzTHz1M/UZxxi8irtbecHDHxDs/X9QMKEFJIEPussWLF48LMuJoWxpkNJ+XQIIYWf/yL//Czckop+YffvpTTJ9RFvOaWpirzp+jsJTiuRd0HCLqO6bwN8Ei3hwLl7Aiv1huJQ1ukmbPcao4FtYXtW635rki0E2dcLoDIVyquY5r9S3o7R/BENUyY6vNi6w0P6YXZWFqcRaSfS4u608l/ifRSeLWDHfcu7BjTxOZnKEwwiMjGGpqQPe5cxhsbIajpw/OoUFm0zqpS2h2NlKnTYOrbBocWZmIuCl3xsNZMKPFYMYdxhdwgQ1kDh86aK9dFtP+xUyhNyMhpk/NirDZXIAxQt36qwVOBsY5OPVSyAidR8O/yGmyOnFOdt5sQGNTuSQVhD+L/H9SAWCys/Plup6UCqpdRq6misUVdstSSpJ4+sLonpIIU2i58nF3N1OLf/r3P0VOXp4Nj0z6ukkCGY0QcjPlWpQLLibBRWUpSkuGd6XhvrCfIMkUGqNu2ZdrZccajc08ZUAZpkz1kRCGRoIIBkVhSY/XDZ/XDa/LwZ3AWSVUm0G7Lb4cb60cgUKLFYPkrrIkUocHEQr0A4ODCFFrDwfgSvTCneSHM8GHMFnUDhccnFT6xTsBJzOjtLcpqZhyeKZQs75DBw9IV7PQIoSsVZWT5QpqVpdwqpkbfTTjQPu64p18bukr3AgWDU+W5mZwsZJB9SE0+N66RI0FPXrcWqdVryLfxxaBMd11evakNURW0y3IeJ3Moty5NnYG2F0mQSaGXWbTZMR3+aNRjHAS0hQ7+cMffo+hoSEucvmd73wXiT5qxWwd4GiQUaOaKMiMtY4Tzb/SzbDivKMej/XGuiDfl8JTdEs2svXi/E7StajfT5JHlQCnBEg+r9Shd4w5uyVDu6GbWOMSa6v2m/KZivbn+kewANhtxrkyRFUea3Pf0Jhu/5cUyHBM5tCB/ZrCrOWxKXi1ZiUOscjSFUDE5Sy0a0xMmpWEKYDCBCG1UbjfB9M+rQs0W4IeoPNizBiPFCbSBKLvU3IXEwYUC03QLmzCRlwnO/BKXrl9zPJl6RouqGQvM3P7l+POE6JngPYQJWNGgwzlDdzID32NSs+QFUMxEKoTlsbBdLlV4uQT3MhzRvvOWKOOdoGIVxxbYMbIHG3JREvZG5uvW/nuk7+X6RpX3xbvoS1HLZNl3xYjxqW/8SVDnHjKOH0m9HeSfmHRJVz3JBY0Z94NXCZGIu6EJvRm1/3m0drmLju4f78xIhX8jxqkmiHrVMpXle4rxgIZdLfNpnUf6uetDCL2LkaViqEbKpqmsl7Eq1p5Lyb2WXNuuNIE2hgoE4048nejsoG1Ka2kaR7bHWtmQtv5dl1E7LIL5y+wu8wqKzP5w2PGSYRi5LT57lWA/Xa9R8yejUHUqA9Uo9M4iQJas1eCyNSpbl4u3PYpmNgDJv4i0dbhbdYVJjb8G7hKgKf07Jgmm2T6CuXKFMKjPIT3Q+wZGfXUxJtqtcnUIya+HLZB2UDmwP59Igqj+r0ry8Q0CJSFoGxXfrDdTIkdi/Vq3EteHQxlpWj2mKHLyfva7qXcZNrFJSeb8cLqjCngw84u03gn/yGVRIlhsWE05SS0qg3cwI6585WbngFFYSYXl47JSEVmMjfXzENWB639eONJt5M/cfobtpNu/CIvEJ9IjZ3/bWedaU+2vE7tdEPFMgRRHHr+ZCZuUtdOfk7st1dzYb/PmIAh48bRTFvrO2YmfNTTJq2nTPoLk5o9lqS3GR0n6qqd6MAnQncmdxlRmDkmc2DfXi17FdiYW9Q0TEb7t4AcXSPZUN6omrIOsfDnmoGmStioFDptsJjtBMzMzagbyafYbBWbFRVnymL+rm0lgZm65xBZMjd7eCa6ZHeui56BGwUZG53duKlNOTNlhl1Cj7sQMW6q2IGPew9xgV1wmVFOpbGOtvvib3EJTlEuoht1L5ovESMAb5fMlS1BYogQFgfINrdWUme8BY1ehvhANrHFiv/CqhU6e/eVonCDcxM7unjjjb65uUPG+tvE3tK6amIvYZ21+NeTJUN5awwy+/ft5a3JYKA3v9TpzdMpM2lFwq4lnNWmNwkBSsviPuPaOlH5LWbMxaAOmxUCNDfZABk5C/ZDFuUOs/1q/WJ9x1oYzSPQl0mUU/Mgc3Umu0R3rr/5GTBBpryifFx3WbSmpgSAORKbKBqjOvdYo79VasfEjnH8kYw2BvrcBgjxTahxF0clRY/KorBh5GRnZPQ3t/CR3yRqnGPN2EQAxLpmPBqw5cZXQxgdZCgHit2x0rU+GtiMZ6iIWIx6a9GGxLLSlMdoIrvGmLeJXB5vN0xgScX4hLU42rvZ3GX795IlIzNNpU/PNr6YNbSLbLvQV6QA0T5Zj1cBDbvIjG/IC+x1zaxqAPx59ANiP4h/cGK+Z8fq6LwKBbTaO+e02j6PezLvXHDLZ4DYZeQuGw9kuABjcATdXd3o6+8zGJK0d1TOU3Q1JyXI6KBM9DSOQSONc7apxW6MsBzXFLLZEHEFrRqtuL/4ocCwy+mA3+9HamoaV2gmS3yixFcl0KhcDtUTI+opVSQQvZisRFX1SOtkW4AQT9jY9FYeqVA6VUBbv4BS9GwCI54iazbPs2vy1m/cCs3SXnkZ4qyxrnJszSMJTUqmTU9PR1JSoioEr9dRyYyBgUF0dfdwKSPBkrVJNa2q82vpYpSjWR52qR59lX0WxjtmowH0RPf46Pc3YYD2RmJCIjIy0pGYmMDzFL3+NnfZ/j175F6wMv7tNOXRHmxKcZXhb+X5GzR/i4WscmDkLQWIqEincrdp5JF1LsXvYpDS12rRwwx2m77I0glMzoBkoTEjzfReG03YWKPgJj9igHcSM8fb1Lfn77QvmMJ84fy4IEOEkmt1dejs7IY30Q84KTVPsR4t9qNcUduAhe6jI+0TepkbqbgRqxxO5NBb34qGSEMsWtkXXKF4GMWFBcjKSJfl4yfySuI5xPisb2xBa3snPAmylI44BTaad/Q8ijcZR6Mzh6FLFkSNTb2uCZ7yvqMXgtSSwX4zy+8t3fjx58Fy3csAQSTC1a0JRJZUzEWCV/a8YWwT/+7t7cOly1Sc1AM3z5PoQ2QLW5uPY7kTQcRwvzOLVVmexntHQwTPqlZWjN7xURJd3m0iiy1XdPRLR99rlspE70s19NJSkjBtSiESvKLmo6nU2EBm3959PEPUPEjsFyGCWVtRgfUolUQtjjKZVMaLONxiMrgMhxWX14EZadTIRynQkFuXKcmxqBgPzdXmVhtQ6y78D/NT+VomzVkyd8zWBmr2VdkcPlx3GGYT3ri38kIFMhcuXsCiikXCXTZK4L+3rx/VV68hMzsHTnciwg4FMqYgN8S8NFV1wT653yc2/mi4iCMZR7mRCRkxrihV4UJ/11CstBCPFcrijIrPSYZ1d3QgPcmNKQUiyTT6LqOIWv6YBOv5i5eRmpEDj8/PeRrqx1bccAITpYE41ts96reV4qcuME8wyxk+jzKRUXa2pUoO1o+wr1RJK2FFSI5wjPvNbmSy1cfXRrjBXV19HaYWZWNKQaagFkuQoXFcqr6MUAhIzcxBWNYSM8MH8V5QpLsYO0CO2wQ5JaVijC6tEQuwEsLckmlScgoRfxNJuXxPrSsYFmOUDsYllqiU0sgwOlqvY86MqUhOShRzb+xVG8js3bsvwuVf6BmcmBoUB5o+kJYnL5hkoPEZla/KL0UWMFW4UJUC+GL6H/qDTLDkmRGJRepZarIsUBEApVomi69EgY7cU5oFpsxRuUlUmwAx1PgME01QkOPUYMV1phTCiTbT1MPjzs/nPwM2kCmXIMPbKtYCuN7ajubrbcjKzUMILoS5yIjQLvncmIfbPJzGrcbzmZszEGuVWEfelHk2Bo7e7LSpTZePIVJlHJKEnKgGYLn6YlbAkDL0fnToEQ6hv6cL6Ylga0ZgqVXbb/RVFDfrDwzgwsUryC4oQtjl1eAlZJwhII0AvSjxZuTGjdH0T51lpfELZdTy6dtXNo6CIAXgWEwpDsJzfFm8N59hVnZjV03JF7FJrOfR97q6OpHoCmJ2aTHXFFMkAwoxnz59Brl5+Qi7EhCSIKO+PZ6VOyGCAA/VkjuW4Fb5gHaE0c82ei5FA7a1y4Qc5vcxvEHW3hB5R/GMe3X0SMa6nE5uFHi9oRazy0qQmZ5keCTFiKJARrDLrLlWjTIN8yzKEyVAx744+kWMoJUVXLdiMcqS0eal6VfT5oi4mzhshk81TptlPZaovIJotNcmt/yDnmMpAMT7yHkwTuSt6BI3+gG/85d4M8CB/0AAly5ewsLyhWNaMq1t7Whu7UBWdi6CBDIRqlSrtCNpA5MSJJdXFay0BEIscInNFz0ycfCFtixqi1kXGW7f6NvJDa+UmbEC6soLIB5kpzDbKqPbavmJ6sSuSBi9Xe1I8btRUlxoBUfH3WLiRfsCAZy7eBl5hSVc7Zfqh4kfurv1Y1n/QpTxLEjgEYVF1afy3Movy3RD/rs41iz+pRwxEzDtiYf2KgxOUaVdFhq1v5oapdKphfwS62xfTLVy6lO5SyRHyYGe7k64Qv2YN6tUrzfdh1yzJ0+eQX5hEUJOmiNRFXnsH+vdTNkXbx8YM6rNCvE2YWGlUK44tQMIR+CSbjqebd7cZn+ZaBqWOUJLYkohay5udDTLtvJaRHLBWKCx4Rrmlk1FZpo/KuwVYZAhdhn1c3Ls3rNHjFELeGWUGdWJ48yijUKo2GB6FLEuL3XM7QH3uKdZTLAEGLUwPISoumrq27ZzLd/D9k56/NEbwixhIC+SaMMaMC3qHWtmXDF1qy9gSyYwwE3BFi1aZFXajmfJtLXjelsnMrNyEIQboYhb7x2qjNzX14NQKCiGGAGSU1Lg8yVI5cXQiEzMEMdakestcet0IBgKorOzkztRpiZTIzP7OVRgojR31UBPXEVaJFevshXBpLNEApoOJf0hgXz9Tur8aAXdlcTkoyb+R70Sj9YdCaG3u4ObfZVMESAzscC/BJmBAZy7UM0gE3G4+f1lOy3bK1JnT6qcMDg4wP1rEhNFgJzmpaOji+eaAsI+n4/73QRHQkigPijGmNUNiWDgcru4JYJYEOESolIxevSqlxS5siIR7oSa6PPJfipCYAovi5BbQ4NDPCZRjYTmj1oUs7NNW13a42F7M7KqBLD39XbBGSSQKTMqnFDcKoLKk2eQVzgFYaeLLeexQGZ4eAjhYBj+JD+/HlXrpnmj+BfFvahFg96YhleG1116YlQfHbLO6H1ojyQkJILuLebegkgzdqX+LfrTRLhKOP3Q3qKxcM0V1vQVUUKMRJQmFmsfzwC0jkkETfXX2F2WmSrez5LmEbS1tVl5MgQySnrrEIwStMpFxt8WLiRVWVlcqzSZaPNFzh2NV+aeaNaWHImwZCxEIPmh01TU4kvQNa0SE8+k3LC2igkw0ZKP72VqTMYYpdKlvWWWUXNL+l1HD+XO72PPgAky1G9lrIx/smRa2zqRniUsGfqvClYTGBw7egT1dXUIBkdQmF/AjcKmTZsqDhRp3rKcPtNRjZIepGSoUvVC0RGbsbb2Go4eOYrFSyowvbRUWwyiGatqOiXpnUpwSEFgadXKJCcGl4NbLs+ZNQvNrdfh9XpQVDhFNVay3FFh0cdd+d7V3lfi2BkOsSWT7HdzMHbiICMOZP8gVb2uRi4LUK92EQnLRZxAmsPK4ydQ31AHZyQCj9eDFStWIi0tFTt37kRHewe3RqbrH374YXR0dnJTuMWLl3KnUQZOedaGhgaxbfs2pKakYPWqe1hYKthkuAmL/vXiTApJQcHmAwcO4J6V9zC7ifVpdj9GcKryNKaUFKOpqRnTp02DPymJ50uw5EQNYwYXaQlEbC29xRyI2DyBTDccwQHMnTVd2MTSqUOWTOXJs8grKkHQQdEaq5VajLhxONDY0MCK0vr16/jdWlpacfbsGe4TVFI8BQXkdpP6ArWcoB/tjiJQkUJfAIkItlPr7YqKxWhobOB249SCW+gdioAgFBahzDi5z9JIMMjMw+GhIUyhZn1y32vmoN6fqmqLCHWMFosTHqYIGutrMHfGVKSn+LU9p9aQQIYAsaioCI7du3frfHw9URL9+HfDdycCcArnlEVnQYA6pPqwsv9PLHD0j3WgJQQygImrrACX8T3te5N+YO0AMfU1bY7pJk+j+0mtcfP4jFiTIj8wrt9JyvzcMVGDzKWLWLhwfJBpa+tEmgQZm3bJpegiOHzoIDo6O7B500b0dPeis7ODu2ASVZX6k9DhTUlJ4d97enuFthkKIzc3nw9oW3s778qc7EwcO3aM6dIPbLgfQ8NDaLveivSMDORkZuF6m8hypr71I0PDfFDdHjfcbg9r/zk5OfD7k9DG2dD9rO37/H689tprWLduHbKzsuD2eLgzZ2NzC4+R2jbTs4laPDIchDcxUVznJmtDYVyEHTfdne1I87sYZCaX5e1AP1kyF6uRW1CCsNMjLQNuEMzrT4Klp6sLO3Zsx5o1q5CTlYVjx49zkzZ65wvnz2PLli2grqD79u1jGvSMGTNQV9+AVavXcJ8fOk8kOgmgyJ3y4QdbGVQfe+wxMS/t7RgcGGAtnZrNJST4+DO6F7W/pmZz2z77DKtXrYLHk4CsrGx093Qj0N+LDz78CKtW34O0lDTk5OZyIdS21jb4fYk8h13dXejt6UGi34+cnDzSMOxapvLKRyLo7+8EgoOYO7OUO3MqkCFL5sSps2ztjTgIMMeO2fb19eH9P7+Lxx7dAr8/EZUnT2F4eISby6Wnim6rtBe9CV7k5GRxEzraEwQS9F4pqano7OjiFtXJyUlshW/94ANs2LAB/f0BJCX50d/Xh+BIkKnXNGdUo6+vt4/XIT09A3/96ydISPBixT0rOY5Ce5XAj+QytfdO8PnQ3tYKoq/TucvLz+fW5CwPxwlWEsjMmzEVGakCZDg+L4HaBjK7du6ye5G1e9liMwisMTKGzCrNhvA3AcLkQOggqDaV7HJLA47FArBpNTo2Y6GgZKEpiqrpjxVAIw0X6RaRX1TeMapsKs1Rvi6K0abuQNfcacn8uWMMP5AozJeqL00IZCxLhhrecmNbPWjKHyGQaW9vxyObNjFIUNvm6dOn86Fsam7mw0fdKp948gls37aNu2M2t7Rg9uw57Lbr6enmfZCdncmuMgKMpcuW4eDBg9wi+XpLC+5dfy8OHDzAArFsxgzW7JcsWYzr11u5fbPb6WLAWrhgERf+TEr2oaGhAXNmz8HuXbuwas1qFhYkdGmswyMhON0u+H0kFLOxdesH3CWUtOF777sPebkkKIVbj926ZMn0dCLV58a04gKu7DuekLBW1sExmfMXq5FD7jIGGVVNS8WiHBgaHMCB/fvQ29eD/NxcBk2aq9ffeAPr163DzJkzWU50dXfjT396i3sBEbV89dq18LjcTC/nM4UITh4/xp1F6bm0FjNnzMDHH33MlhC5dkholldUcHdUErzXrl3D3XevwKlTJ7F06VIcPXoMDz30MHcIJffcoUOHsHz5crS2tnHb7IMHD7FriAQ9lSY6sH8/0jMyWbiuWbse/uRkba2xpcS1r8gKAPp6O4GRAcyZVcbtBGgy6P9CYaDy1BnkFpIlY8X+hCJrySBT3u3buwdetwvlixZi/4GDvKeOHDmCaVOnoqWpmfOb+gcDKC9fhJprNZg/bz7SUlPx2WefYe78+bh0qZqtsrraOiwqL0fV2bNYs24dv//MGWXo6e5BXW0tAoMDWLliJS5fuYyU5BTU1dVixoyZuHrlCo+9tKyUlaLQSBAt11tYoaJ5XrBgIbZufR8zZ81iK3D58rsxc9ZsnifeP3GBRkjIpvoa7S5jT5SUoyRdLZAphmOnDWQMvJHtZi23lrIg1HQavjCb/WGEVJSfTlkJ0fRkCVYKFITKpNUze8BOoUGMzFPmj7J/DHhTeTLKUolDj44OCkZh5h0a8xeAMcqSuXRJgIwuYREVk6HPLXdZDoIR4S4zXTwkIkkQdbS34ZHNmxlgOjo6cO+997KQr6mpYTfQ7t178J3vfgcnT57E2jVr0dzczIc+LzeXKa1ulxszZpahv68XIZI2Dgfa2trx4IMPYtfOnaw5kqZcVlbGGuhrr7+GF3/wIgNRbl4e8vPysG3bdixbthwN9fWczlN9uRoL5s/H6VOnsXnzJqbHkibf3NKMLVseR/9AAPv37WeXw/HjJ/DNb34D27bvxOw5czB12nRtfbOHIRxGvwKZonytfts1yNEWU1gyGmSoCyOfTcuSIZcN5ZB0dXWgrfU6Otrb2TosnV7KLa03PPggt62muAMJ9rfffptBoqOzC6vXrIHXQ50dBWANDw3ijddeZUEXGAjwfbc8uoVdYRSDI1fZX7a+jy1/8zeovnyFv0NKQHnFIlRfqsaGBzZg+47tKCwoRGdnF+5ZdQ8++uhjrLh7BU6fOYNZs2ahsrKS5zQwGGCBtf/AfgaS5NRULF92FxKTkuyWjKJJI4Le3g44Q0OYPXM6gwzHzLgDahiVZMkUTcWIBBltMTLSGP56yTpou96Cjz/6EOvWrUFNTS3uXrECW7du5dbfZHH0dnXDk+DBjJkzcJGSjxdXMMj89eO/YsnSpahvqGc5eOXyZW4JTntyzdp1OHzoEO9T2rv79u7DwvJFyM7ORlVVFY+39to1lJaWYiDQz2CbmpbO1mN19SU8umULkpP92Lt3L1tVR48exbPPfp3Bz+fzswIVYiUj1gMlrFoxdU31tZgzYwoypbvMCrdEWFES7rJiOHbs2BGxCgnKSdIxGSX0jQlUTlXl5dKULJLoMVEVK0lJLakBOIL+aIWSbEdAMRF0lQDt/jYuU/RJ9VEU/Sx6kszAEFkzMq6kuW82Nop4wTu5Mp8/ytB+JAuC2GULFi7QcTFLjbDG1NbeIWIymTkYAQVjpSVj9L4jS6azowObNm3keApZG+vWr8POHTv5QJI75a0/vYXnn3ueE0BXr1oNKotBFQdmz5nFApsAiQ4ONTyjWARpek1NTXh44ybs2Lad3W3keiNtnjTPN954HT/64Y/YdUQHmbT+Tz75lC0Qspyml07D8ePHubfN6TOn8PDGjbh8+TKGh4ZRX1+Pxx5/HD09vTh69Agf1Kqqs3jm6a/is+07MGPmLEydNk363ikgTtEBB/q6O5Dqc2Fqcb7sUTKx0D/HZJS7jCwZECCowL+UKA4HOtvbcPr0Kda6k/1+HD9xggGCykf19fVi3dp1DAZkvZHLkbTjuvp6rLpnNbv3nNza2oVLly5i7+5dWLtmDQvm7du3Y9269fze5eXl7Lp59723sWzpMk5+nDZ9Og4dPIR5c+ei+vJljvdUV1ezwlBRUY6Kigq89957DOAkZGfPno0TlZXYtHEjrre2yBYPIpv/5KnTWLb8Lkwvpa6oMiBigxuKyXTAFR7C7BnTZZsQZcmEcfL0WeQWTWWCSYRcZoY/3tyfOvAeGsG7774Nj8uFsrIZPHdvvPEG5syZC1+inxWos1Wn2VojcCWQpcD+9m3bue4Xux1nzsCJY8dQUFiA2to6Bu0jhw6jorycY45z585D2UwBQLRnSTE7c+Y0sjKzWNATUYIqQRDI0PoQ+JKrjYCX2F9k3T/77Ndw5PBRdkkuXbqMY0XhsdolOCyQyUjxKz6nsBEiypIZEjGZHdt3WAQJCSCm+aeC/YK9Ydb3kiaiHZdkwoz04zLHXKylznmRaG+jayqbRQOXWHV7kN/eyllz7eRLCXTVQR3rn4b1ouFMu8uUIWy3ZzRzjsZ9JyHzc0cZBTKktRLI2JUg+3AIZCgmk5qVixBbMuSMocQ9uYcAnKys5NyHr9x3H06fOoVAYAB3330X9u3bj6bmJu4vQ0LroYcfYjAhtwvFTa5evcqAcf16C98sIy0daWnpHJydPWc2PvjgA3g9Xi4v8tBDD6HyxHEW/hRk/fDDD/ngHjt2lAEmJzubraWs7GzUXatFRmY6GpsaUVFegdq6Oo4hFBUVIjkphQU2CWdqNUwAk5GegdNnTmPT5s1sGZWUTEVRcbEAGSOPo7erE2k+pwAZ6UabqCUTGKA8mcvILiyRQK0sGcvPMDI8jCOHD+FqzVUkeIVLbeXKFWypkTVHIEzuxP5AH1avWoO8/Dzs2L4TLo8HHo8X8+cvwIIFC7B9+zZkZWVi2bJliITCOHL0MFpb2zm+Q38na+izTz/ltb9y5SpSUpLRUN/Av5Mbc/369Qj09+OvH3/MriMKon/w4Qccz6K9smzZUpw9W8VrODI8xO4zAkQCusGBQay79z5k5+Qa2fTmnoqgnyyZ8BBmaZARsT2yZE6drkJO4RSEHNQSmQLsJlBFz7awBWvrarBrx05s2rSJ5+TP772HadOmo6WlBaEgsfI6MG/ePHZ9ERDQd1weL4MMWdpk2TQ2NWD27Jms2CxffhdOnT7NoFRz5SoKCvLhcnu4rXhTUyPvt6bGJlZ4iPJ86vQZBiKyaMjirjxZKWOQGZg9axb27N2DJx5/ij+n/Tx/wQJEiDQhKxPEFQAOoLmhFnNKS5CRSmw/I8pO7c7ZkhnkPe3YvmOHIlrzvcQ0ScvFbGdmuKv0NVacXUGH9F4qgoDM1jQsClusRLJ5rNsIdoMCIM0F4wuEmRFt9xhDsNkt0g7Rb6SslegJEwJMEey0r05LKKY13vn5XGfABJn5C+db7DLt97ZbMtGBf8FbtHYAaXNErSXK8eDQIB8eny+RXVNdPd1wu11wu1ysQQYlE4euJ581Caauzi6+Wyb59LkoIuBLSkFnVwcH8JOTkplhRe4PiqlQ/Ka7u4spvhQUp3uQu43S6mPuAAAJeElEQVSCsgmJieju7GKtJiHBwzRWovnSfQjQqO4Yadx0SAlE6JlkKZCLiVw9pNkS+NB/lWtZeATAGnu6z4UpRXmTsmTo1BG77CKBTMEUhB0eg95jUX/pdBAYdnd1sZvG7/OxAHS53OzvJ2uRxkLz2dXVzfGqgcFBjkXRu/j9yQwkPT1d7Jahule0FhTopxgcvTcRIWj9KaBNNPHe3l62GolNRnRnem5SUjKuXr2C+rp6rFi5gkkDdB1Rpmnuk5OSeB1pDASGtA7kwuule3o8yMjKloqLSBA3LRDi+fT1EMgMY/aMaUrsWCBzpooZeBT7o8RfWWcgzvmwkm4JSGl89O60z4jEQetHFi0RTWh/0DrTfiOCAik9FHwnQgBdS/TwJH8iAwTNMxFDiKxCjDRSmGjeaG1IuSHWHs03zReBLq1Fd1cvd4H1uD1Me6a9RUCenpbK+4/iZuRqoz1Ic00EA8KX6LRhGZ7S79rUWIs5ZSXISBkPZLaTu8zuijJ55zGRcwlCJmtLiGa7S83ChShDSQ4xxklmfqAVArtmoDx1MSuqs5CF1qVvNVoGsn5hacHY3t8CGsEsi++X/Fyl7n+xh03UkqHrKC7S2t6FdMqTkTGZeGxGZedqK533gKxKoYObKhFZMijlJqbnmAqP2ulin5nZ0+IpymUg/xFnCwkmpUoMZbXOOFCi6oXch5pyaXUoowOrzqhQksQze7q72F02pTBX2XNxYDneZhIgw5ZMwRREGGSUlW/sf3ZBitwdjgnLuINinQrzUdT4Yi04JnVcKpAGLdocoHqSqFQgrDQbsVl6JUiIHj50mF2XJVOnilwR2TQx2pYQXXFFjolKFhXtR+JYIJwX50BvZyuIQjK7TIGMislEcOoMWTLFCPEME9CotVIBYDUCayS66y+vs3g39aOkjZhToUirNbW5h/XkSCNAlViR8SJ+mqq+YFtimkNB1Ze6NP9V7VvhYYqaNZmaYsZkrOicNfKmxjrMKqWYDIGMhRR0P8uSIXfZth0RK3FJyFTxUGmvGBRknghJ6VMbTbvTJIVN5NMYstmYPLG26mXFRjWTY2T3Y7HBdcEBeTNpSZmBef56VDBfL5qcSmvRpLstpmW0WjRVVsYiH9xxlX0x6GazZBbMHzMm097RidbWDqRlZnM5FKIwj6sWGGdK/ZMoy+qYCPlj5H7JvaQiHPSdsBQU3GNeScqY78SZP01eMGxwm8tFfkfHDxW132o1btL/1V1IcFGmekqCAyVFeRJkLM7T2CtJ7DICmWrkFU/n+m8q8B/lSJbgIwBGs6iUW1zHONQKhAwrQejFXOiFczqUC11anAaYmiIvRgjLFxkaGmZaNI/BcJXb116ujbqh/KNZU8CqpCDWm9xL/T0dQMh0lwlFmcvKnDmH7IJCwO1BKEy5NwKsTFV63P1npGlEr8to6R7xVQMTyMwrojR2LlEU5aUxLtcAN8YmEZ2PxY8UxSCQoWTMVD9ZXkIpUQqWApnCwiI4tlNMhksTGBqY2jRclDDMQKAfoioVy2u4kgSvmsRdbW5YgXWBoBaiGIqjTs7ib6sKyAqouEKyJBOYrjsNgCpuIyZQT7lGfZU8Kj+Q97UohkbgR5952jBC27hTUuYLAhnK+B8YYPrmgnFApq+3H1dr65GZncfUW2L7K2tFRGe08zdWq+c/ylbg3JZZ7iCjNIrdDre0SNJkxxYmcQ51tJptgpM6wNIAsG5u6ojiIgYAlo5qDEKB6mpvQ0FOKvKzMzTwxTwy7pJSGZ8hQX/NyIU7wa8rC7NQYUEulEMBxQaTU1oENk+GnunYp4s5s6pjC3xQlpl4Vx1flV9XyZjW0Okaoz6dAX1i8YXMYAs0zgTY49lCNFqB+iAaG2owtSgfBXlZ2oJVgvVS9VWMwIG0tAxEmJKtVAxrN+hiw+pdR2NpRa1FPGKL3HHWWlOtOsOCZJkpkzhN0Bf7RIKCFrj2B0ozQn+o1kZ9oNZGmEDWSaDnk2uyvb0VM0unIC2Jat0Jcrqqcd/e3oGBwCAKRUxmpy7WomIhIidG1v6xBX9k7EKfHzEtXD7fsH54TFK7MAOQtkNpnn7+g+FFt+XkRHmshF2oJ0ZjtiUfjJmU4SgJjGaYX1b4t826FfERm9hatC9G2P5XfiqxyygYT4HgsRJiKV5RU1OHnj5KgvTB4XLp0xXNrYpLllFWhBGbM+dd5F1L4Sf/EBsZjAc3JOCiJJx5Gd+WNExpQWnTXQoGUzAZVk3s7hfHgQ59gtfLiZi+BI9QuyeRSBwKRThnqL2rFx5PomauiddXzkJDY5fAw4CnBVBUyd54Gzj6nJoV082zrS0b443lZ9Y0GoJdu5mkJ0YZOCrmooFM46VNuCo3e3B4GMPDASycPwcJHmEVa+EfAfr6B3ClpoarF7g9FBcTFSaUxSeUZfmbVK7ptaKxTozcmC89L8aV8vXE1hBlb1jUK/DQ4GrCgmXFxFq8cUYRvXX1PjT+IHsACVcpeSYjzIJMz0hBYUEW3C7hEDSfTG5sIlkUErts+/adMmfL8Eer0v86j4WsFfPNjMGa0jrqUOlfDXVCaATa1JBYr2Pvekkl7tisvBjkNWuZSWAz9T7r+eZut0+euU7mEtwBmC8O4mjuKWBOlF4qAzPeWoyMBLmJ1MDgkGRbqeYT1oqObnUoASEUEv0NI25n0+zkL+PRQcazIOwAGE+HtQRXvJXQep60bCjATdncPq+XEwpNhuhEVpKE2PDICHr6+tDfL4LK2o1iPozFndEGIEpNi/+sGEkmLzPhYrwZo6+Mvor255pKqPyO/qolCtV3+BMu4+Vg4kZaagp8iV4bRpvhgYGhQa76QPMl9GHLElJPNi2osZjAseOOlnLm7ot6fwNYYzLKo18uBpBG3xViBPZnRU9fos+PDCIOSCCOjt3b8mTe+Nf/HckpL7cbwVygTehw3PmNgUQGXfThUwElc3NIoNK8ZUsLsTa9ZVJpHVFBvcqZUVaU1Gy4k55GdbkIMnnKpvAp14j097JGoV0fhkmuXke6AoQ2NpbXciLH9M41t2oGJgMyZuBS1RpTO1If+AkOzIiuxDlm9mM3nrgbS2TGBlGVcjp+Xku856pzFAvGExHcsZOjKPw0n9oBry+zt9wdzcUjLh+NgjHBBRnlsvGUDvvXxlspw8qQE6lqhZleJls+jCQ+kLIcEzRnoXNj723zBt3cFNm+PZn5in2fqIEYk2KPy5nXiTwZYsAROeP/AWppQ9QOxqvSAAAAAElFTkSuQmCC;" vertex="1" parent="1">
          <mxGeometry x="30" y="91" width="899.38" height="466.19" as="geometry" />
        </mxCell>
      </root>
    </mxGraphModel>
  </diagram>
</mxfile>
